<svg xmlns="http://www.w3.org/2000/svg" width="48" height="48" fill="none"><path fill="#fff" stroke="#fff" stroke-miterlimit="10" stroke-width=".25" d="m40.9 33.4-2.2-6.5c1.2-2.1 1.8-4.4 1.8-6.7 0-7.5-6.1-13.7-13.7-13.7-5.3 0-10.2 3.1-12.4 8-4.2 2.3-7 6.8-7 11.9 0 2.4.6 4.7 1.8 6.7L7 39.8c0 .2 0 .4.2.5.1.1.3.2.4.2h.1l7.2-1.9c1.9 1 4 1.5 6.2 1.5 5.4 0 10-3.1 12.2-7.6l6.9 1.8h.1c.3 0 .6-.3.6-.6.1-.1.1-.2 0-.3Zm-19.8 5.5c-1.5 0-2.9-.3-4.3-.8-1-.4-1.3-.6-1.5-.7 0 0-.2-.1-.5 0l-6.4 1.7 2-5.9c.1-.2 0-.3-.1-.5-1.1-1.9-1.8-4.1-1.8-6.4 0-4.9 2.8-9.2 6.9-11.2.1 0 .1-.1.2-.1.1-.1.2-.1.4-.2.1 0 .2-.1.3-.1.1 0 .2-.1.3-.1.2-.1.3-.1.5-.2.1 0 .1 0 .2-.1.2-.1.5-.1.7-.2.2-.1.4-.1.7-.1h.1c.2 0 .4-.1.6-.1h.2c.2 0 .4 0 .5-.1h.9c6.9 0 12.5 5.6 12.5 12.5v2c0 .1 0 .2-.1.4 0 .1 0 .2-.1.3 0 .1-.1.2-.1.3 0 .1 0 .2-.1.3 0 .1-.1.2-.1.3 0 .1-.1.2-.1.3 0 .1-.1.2-.1.3 0 .1-.1.2-.1.4 0 .1-.1.2-.1.2 0 .1-.1.2-.1.4-1.9 4.3-6.3 7.4-11.4 7.4Zm12.7-7.5c.2-.4.3-.8.4-1.1 0-.1 0-.1.1-.2.1-.4.2-.7.3-1.1v-.2c.1-.4.1-.7.2-1.1v-.1c0-.4.1-.8.1-1.2 0-7.5-6.1-13.7-13.7-13.7-.4 0-.8 0-1.2.1h-.1c-.4 0-.8.1-1.2.2h-.1c-.4.1-.8.2-1.1.3h-.1c-.4.1-.7.2-1 .3h-.1c2.3-3.7 6.3-6 10.7-6 6.9 0 12.5 5.6 12.5 12.5 0 2.2-.6 4.5-1.8 6.4-.1.1-.1.3-.1.5l2 5.9-5.8-1.5Z"/><path fill="#fff" d="M17 30.5a1 1 0 1 0 0-2 1 1 0 0 0 0 2Zm4.5 0a1 1 0 1 0 0-2 1 1 0 0 0 0 2Zm4.5 0a1 1 0 1 0 0-2 1 1 0 0 0 0 2Z"/><path fill="#fff" stroke="#fff" stroke-miterlimit="10" stroke-width=".1" d="M30.6 22c-1.8-3.2-5.1-5.5-8.7-5.9-.3 0-.6.2-.6.5s.2.6.5.6c3.3.4 6.3 2.4 7.9 5.3.1.2.3.3.5.3.1 0 .2 0 .3-.1.1 0 .2-.4.1-.7Z"/></svg>