<svg width="74" height="74" fill="none" xmlns="http://www.w3.org/2000/svg"><path d="M36.886.001A18.707 18.707 0 1 0 37 37.416a18.732 18.732 0 0 0 18.707-18.667A18.709 18.709 0 0 0 36.886 0v.001Zm.236 2.771A15.935 15.935 0 0 1 52.936 18.71 15.95 15.95 0 0 1 37 34.645a15.937 15.937 0 0 1 .122-31.873Zm-6.428 2.923c-.22.011-.433.074-.623.182v.067a14.51 14.51 0 0 0-7.373 10.077 1.386 1.386 0 0 0 1.096 1.621h.263a1.386 1.386 0 0 0 1.386-1.123 11.737 11.737 0 0 1 6.014-8.204 1.401 1.401 0 0 0-.763-2.62Zm6.268 1.971c-.75.02-1.347.633-1.348 1.383v1.608a4.838 4.838 0 0 0-2.573 7.461A4.837 4.837 0 0 0 37 20.135a2.079 2.079 0 1 1-1.662 3.326 1.387 1.387 0 0 0-2.22 1.665 4.87 4.87 0 0 0 2.495 1.702v1.621a1.387 1.387 0 0 0 2.772 0v-1.62A4.837 4.837 0 0 0 37 17.35v.013a2.077 2.077 0 0 1-.188-4.149 2.079 2.079 0 0 1 1.85.826 1.387 1.387 0 0 0 2.219-1.665 4.868 4.868 0 0 0-2.496-1.719V9.05a1.385 1.385 0 0 0-1.423-1.383ZM6.442 19.398A5.543 5.543 0 0 0 .97 24.944v23.46a7.593 7.593 0 0 0 2.065 5.224l5.597 5.96c.417.443.65 1.026.653 1.635v1.843a3.366 3.366 0 0 0-.388.319 3.412 3.412 0 0 0-.998 2.398v6.831a1.385 1.385 0 1 0 2.771 0v-6.83a.623.623 0 0 1 .623-.626h19.541c.166 0 .324.065.442.181.115.114.18.269.181.43v6.845a1.385 1.385 0 1 0 2.771 0v-6.83a3.412 3.412 0 0 0-.998-2.4 3.378 3.378 0 0 0-.387-.318v-6.929a13.86 13.86 0 0 0-4.268-9.95l-10.38-9.88a5.113 5.113 0 0 0-7.178.096 5.225 5.225 0 0 0 0 7.387l6.277 6.278 1.954-1.954-6.276-6.279a2.452 2.452 0 0 1 0-3.464 2.355 2.355 0 0 1 3.312 0l10.377 9.881a11.084 11.084 0 0 1 3.41 7.911v6.196H12.055v-1.177a5.155 5.155 0 0 0-1.385-3.549L5.127 51.69a4.834 4.834 0 0 1-1.386-3.286v-23.46a2.771 2.771 0 1 1 5.543 0v6.928a1.386 1.386 0 1 0 2.771 0v-6.928a5.542 5.542 0 0 0-5.613-5.546Zm61.045.003a5.54 5.54 0 0 0-5.543 5.543v6.929a1.386 1.386 0 1 0 2.77 0v-6.929a2.775 2.775 0 0 1 2.766-2.774 2.774 2.774 0 0 1 2.778 2.774v23.46a4.836 4.836 0 0 1-1.315 3.327L63.4 57.674a5.162 5.162 0 0 0-1.386 3.549v1.136H43.93v-6.195c.007-3 1.238-5.868 3.41-7.938l10.377-9.882a2.357 2.357 0 0 1 3.313 0 2.455 2.455 0 0 1 0 3.465l-6.277 6.276 1.955 1.954 6.276-6.277a5.222 5.222 0 0 0 0-7.386 5.114 5.114 0 0 0-7.178-.084l-10.38 9.882a13.86 13.86 0 0 0-4.268 9.99v6.928a3.384 3.384 0 0 0-.387.32 3.41 3.41 0 0 0-.999 2.371v6.831a1.385 1.385 0 1 0 2.772 0v-6.83a.62.62 0 0 1 .623-.626h19.541a.623.623 0 0 1 .623.611v6.845a1.385 1.385 0 1 0 2.771 0v-6.83a3.41 3.41 0 0 0-.999-2.4 3.32 3.32 0 0 0-.387-.318v-1.843a2.401 2.401 0 0 1 .653-1.635l5.543-5.944a7.597 7.597 0 0 0 2.119-5.24v-23.46a5.543 5.543 0 0 0-5.543-5.543h-.001Z" fill="#A00675"/></svg>