<svg width="40" height="40" fill="none" xmlns="http://www.w3.org/2000/svg"><path fill-rule="evenodd" clip-rule="evenodd" d="M40 19.995c0 11.046-8.954 20-20 20s-20-8.954-20-20 8.954-20 20-20 20 8.954 20 20ZM20.456 30.642h.004c5.72-.002 10.371-4.818 10.373-10.736.001-2.869-1.076-5.566-3.035-7.595-1.958-2.03-4.563-3.148-7.338-3.15-5.717 0-10.37 4.817-10.373 10.737 0 1.892.477 3.739 1.385 5.367L10 30.828l5.499-1.493a10.089 10.089 0 0 0 4.957 1.307Z" fill="#202940"/><path fill-rule="evenodd" clip-rule="evenodd" d="M25.979 21.755c-.066-.11-.242-.177-.506-.309s-1.563-.771-1.805-.86c-.242-.087-.418-.131-.595.133-.176.264-.682.86-.836 1.035-.154.177-.308.199-.572.067-.264-.133-1.115-.412-2.124-1.311-.785-.7-1.316-1.566-1.47-1.83-.154-.265-.016-.407.116-.54.119-.118.264-.308.396-.462.132-.154.176-.265.265-.44.088-.177.044-.331-.022-.463-.067-.133-.595-1.433-.815-1.962-.214-.515-.432-.445-.594-.453-.154-.008-.33-.01-.506-.01a.97.97 0 0 0-.705.331c-.242.265-.924.904-.924 2.204 0 1.3.946 2.556 1.078 2.732.132.176 1.863 2.844 4.512 3.988.63.273 1.123.435 1.506.557.633.2 1.209.172 1.664.105.507-.076 1.563-.64 1.783-1.256.22-.617.22-1.146.154-1.256Z" fill="#202940"/></svg>