<svg width="70" height="71" fill="none" xmlns="http://www.w3.org/2000/svg"><rect y=".5" width="70" height="70" rx="35" fill="#B9C4FF"/><path d="M35.868 45.502a21.966 21.966 0 0 1 10.787.06c.045.005.09.005.135 0a.546.546 0 1 0 .136-1.084 22.998 22.998 0 0 0-11.318-.065.543.543 0 0 0-.396.66.542.542 0 0 0 .656.429ZM18.39 26.025c.044.008.09.008.134 0a21.898 21.898 0 0 1 10.787-.054.542.542 0 0 0 .543-.905.541.541 0 0 0-.26-.146 22.935 22.935 0 0 0-11.318.06.541.541 0 0 0-.39.66c.067.224.27.379.504.385ZM29.577 32.716c-3.72-.923-7.613-.9-11.323.065a.541.541 0 0 0 .152 1.067c.045.008.09.008.135 0a21.898 21.898 0 0 1 10.788-.054.553.553 0 1 0 .249-1.078ZM29.578 28.81a22.945 22.945 0 0 0-11.318.06.542.542 0 0 0 .147 1.067c.044.007.09.007.135 0a21.898 21.898 0 0 1 10.787-.055.541.541 0 0 0 .655-.395.542.542 0 0 0-.406-.677ZM29.577 36.628c-3.72-.922-7.61-.9-11.318.065a.542.542 0 0 0 .152 1.067c.044.008.09.008.135 0a21.965 21.965 0 0 1 10.766-.103.542.542 0 1 0 .265-1.03ZM29.577 44.45c-3.72-.921-7.61-.899-11.318.065a.546.546 0 0 0 .136 1.084.58.58 0 0 0 .135 0 21.966 21.966 0 0 1 10.788-.06.56.56 0 1 0 .26-1.089ZM29.577 40.54c-3.72-.922-7.61-.9-11.318.064a.546.546 0 0 0 .136 1.084.59.59 0 0 0 .135 0 21.966 21.966 0 0 1 10.788-.06.56.56 0 1 0 .26-1.089Z" fill="#162EAF"/><path d="M57.414 17.562a3.743 3.743 0 0 0-1.625-2.39l-.472-.27a3.791 3.791 0 0 0-5.244 1.083l-3.25 5.023a22.856 22.856 0 0 0-14.233.937 22.822 22.822 0 0 0-15.978-.428 2.488 2.488 0 0 0-1.663 2.378v.065a2.498 2.498 0 0 0-2.449 2.498v26.666c-.003.66.258 1.295.726 1.761a2.535 2.535 0 0 0 1.799.731l13.967-.975c.49-.014.948.239 1.197.661a2.741 2.741 0 0 0 4.8 0c.24-.412.683-.664 1.16-.66l14.043.98a2.504 2.504 0 0 0 2.498-2.498V26.885l4.199-6.468a3.76 3.76 0 0 0 .525-2.856ZM16.033 23.96v-.065a1.393 1.393 0 0 1 .937-1.327 21.808 21.808 0 0 1 15.09.347v29.153a22.956 22.956 0 0 0-14.212-.596c-.438.127-.91.04-1.273-.233a1.366 1.366 0 0 1-.542-1.084V23.96Zm17.11-1.045a21.751 21.751 0 0 1 13.052-.932L44.91 23.96l-.336.542a22.89 22.89 0 0 0-8.956.423.484.484 0 0 0-.255.146.541.541 0 0 0 .515.905 21.888 21.888 0 0 1 8.05-.471L42.19 28.18c-2.21-.1-4.424.121-6.571.656a.541.541 0 1 0 .26 1.05 21.876 21.876 0 0 1 5.618-.671l-1.869 2.877a22.825 22.825 0 0 0-4.015.623.544.544 0 0 0 .26 1.056 21.07 21.07 0 0 1 3.007-.542l-1.484 2.292a.546.546 0 0 0-.087.255l-.038.493c-.541.092-1.084.211-1.658.347a.542.542 0 1 0 .26 1.05c.434-.108.867-.2 1.306-.282l-.222 2.85c-.45.087-.9.185-1.344.293a.542.542 0 1 0 .26 1.051c.33-.081.661-.157.992-.222l-.14 1.788h-.001a.543.543 0 0 0 .802.52l4.935-2.709c1.418.084 2.825.307 4.2.667a.59.59 0 0 0 .135 0 .546.546 0 1 0 .135-1.084 23.542 23.542 0 0 0-2.8-.542c.05-.045.09-.1.118-.163l1.539-2.362c.292.06.585.13.872.206a.38.38 0 0 0 .136 0 .545.545 0 1 0 .135-1.083l-.541-.125 2.757-4.248v17.895a1.382 1.382 0 0 1-.542 1.084 1.457 1.457 0 0 1-1.273.233 22.974 22.974 0 0 0-14.211.596V22.914h.021Zm14.768-1.588 2.633-4.063 2.167 1.625-2.633 4.058-.4.623-.26.396-.255.396-.45.688-2.384 3.678-.628.964-1.625 2.53-.656 1.02-1.766 2.708c-.575 0-1.149 0-1.718.033l-1.311-.341 1.625-2.504.715-1.083 1.799-2.774.666-1.024 1.68-2.59.395-.612.239-.363.465-.72 1.084-1.691.309-.472.31-.482Zm-8.094 19.657.173.113-2.113 1.149.174-2.167.298-.043 1.468.948Zm2.39-1.084-1.138.618-.96-.618-1.944-1.268.108-1.398.043-.541 1.48.379 1.506.396 1.625 2.031-.72.401Zm10.207-14.58-.808 1.246-1.36 2.091-.541.84-.542.834-1.847 2.845-.434.688-1.625 2.487-.645.986-.905 1.403-1.333-1.668-.092-.114.607-.927 1.701-2.627.645-.986 1.625-2.476.466-.715 1.858-2.867.542-.834.303-.471.238-.363.44-.683 2.882-4.448 1.707 1.3-2.882 4.459Zm-1.28-8.956a2.71 2.71 0 0 1 3.593-.58l.455.293a2.71 2.71 0 0 1 .796 3.75l-.086.135-4.757-3.598Zm.472 36.76a1.409 1.409 0 0 1-1.376 1.415l-14.043-.98a2.523 2.523 0 0 0-1.257.324c-.373.21-.68.52-.888.894a1.656 1.656 0 0 1-2.03.754 1.657 1.657 0 0 1-.874-.754 2.437 2.437 0 0 0-2.168-1.219l-13.983.98a1.42 1.42 0 0 1-1.414-1.413V26.459c0-.767.61-1.394 1.376-1.415v25.074a2.439 2.439 0 0 0 .976 1.967c.63.483 1.454.635 2.216.412a21.922 21.922 0 0 1 14.216.872.607.607 0 0 0 .233.05.341.341 0 0 0 .103 0 .326.326 0 0 0 .103-.028l.033-.022a21.918 21.918 0 0 1 14.227-.84 2.491 2.491 0 0 0 2.216-.411c.627-.471.99-1.215.975-2V30.615l1.36-2.097v24.608Z" fill="#162EAF"/></svg>