<svg width="64" height="74" fill="none" xmlns="http://www.w3.org/2000/svg"><path d="M24.304 0a6.152 6.152 0 0 0-1.139.12l-.555.102a6.168 6.168 0 0 0-4.813 7.379l3.136 14.142-4.899 3.719A39.467 39.467 0 0 0 .565 56.737v.846A16.459 16.459 0 0 0 17.011 74h18.722a1.458 1.458 0 1 0 0-2.916H17.011A13.545 13.545 0 0 1 3.465 57.54v-.846A36.533 36.533 0 0 1 17.843 27.78l7.8-5.92a7.074 7.074 0 0 1 8.515 0l7.8 5.92a36.151 36.151 0 0 1 11.827 15.6H43.023a5.832 5.832 0 0 0-5.833 5.833v10.28a12.416 12.416 0 0 0 7.29 11.3l5.206 2.347c.194.104.408.163.627.174.206-.001.41-.046.598-.131l5.234-2.347a12.422 12.422 0 0 0 7.29-11.3V49.213a5.832 5.832 0 0 0-5.832-5.832h-.715a39.071 39.071 0 0 0-13.122-17.965l-5.468-4.154 4.083-9.768a6.164 6.164 0 0 0-2.732-7.75 6.165 6.165 0 0 0-4.356-.606l-2.141.482c-.926.208-1.896 0-2.655-.57l-2.42-1.822A6.184 6.184 0 0 0 24.303 0h.001Zm-.01 2.873a3.265 3.265 0 0 1 2.035.644l2.42 1.808a6.154 6.154 0 0 0 5.03 1.094l2.144-.481a3.25 3.25 0 0 1 3.702 4.374l-3.79 9.085a9.985 9.985 0 0 0-11.958.144l-.333.263-2.845-12.875a3.255 3.255 0 0 1 2.537-3.894l.51-.102c.18-.035.364-.055.547-.06Zm5.567 33.992a1.459 1.459 0 0 0-1.419 1.456v1.692a5.088 5.088 0 0 0 1.459 9.972 2.188 2.188 0 1 1-1.75 3.5 1.46 1.46 0 0 0-2.335 1.751 5.106 5.106 0 0 0 2.626 1.792v1.706a1.46 1.46 0 0 0 2.916 0v-1.706a5.09 5.09 0 0 0-1.457-9.973 2.186 2.186 0 1 1 1.748-3.5 1.458 1.458 0 0 0 2.335-1.749 5.099 5.099 0 0 0-2.626-1.793V38.32a1.46 1.46 0 0 0-1.497-1.456Zm13.09 9.432h14.652a2.916 2.916 0 0 1 2.917 2.917v10.28a9.489 9.489 0 0 1-5.585 8.675l-4.622 2.084-4.621-2.084a9.49 9.49 0 0 1-5.585-8.631V49.213a2.917 2.917 0 0 1 2.845-2.917Zm12.112 7.687a1.456 1.456 0 0 0-.974.36l-4.912 4.304-2.7-2.144a1.459 1.459 0 1 0-1.822 2.275l3.645 2.916a1.458 1.458 0 0 0 1.868 0l5.833-5.103a1.457 1.457 0 0 0 .145-2.115 1.456 1.456 0 0 0-1.083-.493ZM7.937 59.462a1.461 1.461 0 0 0-1.278 1.986 13.003 13.003 0 0 0 11.576 8.178 1.458 1.458 0 1 0 0-2.915 10.094 10.094 0 0 1-8.85-6.315 1.461 1.461 0 0 0-1.448-.934Z" fill="#A00675"/></svg>