<svg width="41" height="40" fill="none" xmlns="http://www.w3.org/2000/svg"><rect x=".5" width="40" height="40" rx="20" fill="#23D114"/><path d="m11.125 29.375 1.719-3.958a9.375 9.375 0 1 1 3.541 3.02l-5.26.938Z" stroke="#fff" stroke-width="2" stroke-linecap="round" stroke-linejoin="round"/><path d="M17.375 17.916a.521.521 0 0 0 1.042 0v-1.041a.52.52 0 0 0-1.042 0v1.041Zm0 0a5.208 5.208 0 0 0 5.208 5.209m0 0h1.042a.52.52 0 1 0 0-1.042h-1.042a.52.52 0 1 0 0 1.042Z" stroke="#fff" stroke-width="2" stroke-linecap="round" stroke-linejoin="round"/></svg>