<svg width="45" height="45" fill="none" xmlns="http://www.w3.org/2000/svg"><path d="m36.285 14.282-7.425-6.68c-2.113-1.904-3.169-2.856-4.468-3.353l-.017 5.126c0 4.42 0 6.63 1.372 8.003 1.373 1.372 3.584 1.372 8.003 1.372h6.712c-.678-1.32-1.897-2.415-4.177-4.468Z" fill="#202940"/><path fill-rule="evenodd" clip-rule="evenodd" d="M18.75 41.25h7.5c7.07 0 10.607 0 12.803-2.197 2.197-2.196 2.197-5.732 2.197-12.803v-.82c0-1.636 0-2.866-.08-3.867h-7.598c-2.057 0-3.876 0-5.34-.197-1.588-.214-3.176-.703-4.472-2-1.298-1.297-1.787-2.885-2-4.473-.198-1.464-.198-3.281-.198-5.34l.02-5.314c0-.155.012-.307.037-.457-.767-.032-1.677-.032-2.813-.032-7.108 0-10.663 0-12.859 2.197C3.75 8.143 3.75 11.68 3.75 18.75v7.5c0 7.07 0 10.607 2.197 12.803C8.143 41.25 11.68 41.25 18.75 41.25Zm1.819-12.244a1.406 1.406 0 0 1 1.987 0l1.875 1.875a1.406 1.406 0 0 1 0 1.988l-1.875 1.875a1.407 1.407 0 1 1-1.987-1.988l.881-.881-.881-.881a1.406 1.406 0 0 1 0-1.988Zm-.503-2.263a1.405 1.405 0 1 0-2.632-.986l-2.813 7.5a1.405 1.405 0 1 0 2.633.986l2.812-7.5Zm-5.947-1.487a1.406 1.406 0 0 1 0 1.988l-.881.881.88.881a1.407 1.407 0 1 1-1.987 1.988l-1.875-1.875a1.406 1.406 0 0 1 0-1.988l1.875-1.875a1.406 1.406 0 0 1 1.988 0Z" fill="#202940"/></svg>