<svg width="45" height="45" fill="none" xmlns="http://www.w3.org/2000/svg"><path fill-rule="evenodd" clip-rule="evenodd" d="M6.495 6.495C3.75 9.244 3.75 13.661 3.75 22.5c0 8.839 0 13.258 2.745 16.003C9.244 41.25 13.661 41.25 22.5 41.25c8.839 0 13.258 0 16.003-2.747C41.25 35.76 41.25 31.34 41.25 22.5s0-13.258-2.747-16.005C35.76 3.75 31.34 3.75 22.5 3.75s-13.258 0-16.005 2.745Zm5.55 11.355a1.407 1.407 0 0 1 1.98-.18l.52.431c1.134.945 2.1 1.75 2.767 2.49.71.788 1.264 1.69 1.264 2.846 0 1.157-.553 2.061-1.264 2.847-.668.74-1.633 1.545-2.768 2.49l-.519.431a1.406 1.406 0 1 1-1.8-2.16l.439-.366c1.235-1.03 2.043-1.706 2.561-2.28.491-.543.538-.8.538-.962 0-.16-.047-.416-.538-.961-.52-.574-1.326-1.251-2.561-2.28l-.439-.366a1.406 1.406 0 0 1-.18-1.98Zm21.236 10.275a1.406 1.406 0 0 1-1.406 1.406H22.5a1.406 1.406 0 1 1 0-2.812h9.375a1.406 1.406 0 0 1 1.406 1.406Z" fill="#202940"/></svg>