<svg width="45" height="45" fill="none" xmlns="http://www.w3.org/2000/svg"><path fill-rule="evenodd" clip-rule="evenodd" d="M6.495 6.495C3.75 9.244 3.75 13.661 3.75 22.5c0 8.839 0 13.258 2.745 16.003C9.244 41.25 13.661 41.25 22.5 41.25c8.839 0 13.258 0 16.003-2.747C41.25 35.76 41.25 31.34 41.25 22.5s0-13.258-2.747-16.005C35.76 3.75 31.34 3.75 22.5 3.75s-13.258 0-16.005 2.745ZM25.781 18.75c0 .776.63 1.406 1.407 1.406h1.293l-3.774 3.775a.469.469 0 0 1-.664 0l-2.974-2.974a3.281 3.281 0 0 0-4.638 0l-4.3 4.3a1.407 1.407 0 1 0 1.988 1.987l4.3-4.3a.469.469 0 0 1 .663 0l2.974 2.974a3.281 3.281 0 0 0 4.638 0l3.775-3.772v1.291a1.406 1.406 0 1 0 2.812 0V18.75a1.406 1.406 0 0 0-1.406-1.406h-4.688a1.406 1.406 0 0 0-1.406 1.406Z" fill="#202940"/></svg>