<svg width="70" height="71" fill="none" xmlns="http://www.w3.org/2000/svg"><rect y=".26" width="70" height="70" rx="35" fill="#4AC9BF"/><path d="M49.184 57.123H30.076c-1.322 0-2.618-.242-3.85-.727l-1.717-.674c-.4-.158-.67-.548-.67-.98l.001-20.93c0-.578.474-1.053 1.054-1.053h.921c.485 0 .927-.274 1.143-.71l3.708-7.485 1.506-3.038a2.86 2.86 0 0 0 .295-1.27v-5.098c0-.126.02-.247.063-.363.037-.105.964-2.523 3.992-2.713a4.722 4.722 0 0 1 2.391.511c.353.18.71.411 1.048.7.869.733 1.559 1.75 1.996 2.945.469 1.28.643 2.718.516 4.266-.184 2.249-.722 5.836-1.127 8.364h11.908c1.28 0 2.48.5 3.376 1.411A4.708 4.708 0 0 1 58 33.671c-.016 1.76-1.027 3.297-2.497 4.098.596.721.954 1.648.954 2.654 0 1.66-.97 3.091-2.37 3.77.516.696.821 1.56.821 2.487 0 1.66-.969 3.091-2.37 3.77.516.696.822 1.56.822 2.487a4.145 4.145 0 0 1-1.227 2.96 4.127 4.127 0 0 1-2.95 1.226Zm-23.232-3.097 1.043.41c.985.385 2.023.58 3.081.58h19.108c.553 0 1.074-.216 1.47-.611.39-.384.605-.906.605-1.464a2.08 2.08 0 0 0-2.075-2.075c-.58 0-1.054-.474-1.054-1.054 0-.579.474-1.053 1.054-1.053h1.548a2.08 2.08 0 0 0 2.075-2.075 2.08 2.08 0 0 0-2.075-2.076c-.58 0-1.053-.474-1.053-1.053s.474-1.053 1.053-1.053h1.549a2.08 2.08 0 0 0 2.075-2.075 2.08 2.08 0 0 0-2.075-2.075c-.58 0-1.053-.474-1.053-1.053 0-.58.474-1.054 1.053-1.054h.932c1.464 0 2.67-1.164 2.686-2.596a2.638 2.638 0 0 0-2.638-2.676H40.115a1.055 1.055 0 0 1-1.043-1.226c.4-2.413 1.096-6.842 1.307-9.417.19-2.307-.469-4.34-1.764-5.43a3.21 3.21 0 0 0-.638-.427 2.557 2.557 0 0 0-1.321-.29c-1.322.085-1.891.864-2.08 1.207v4.866c0 .764-.18 1.527-.517 2.206l-1.506 3.04-3.708 7.483a3.365 3.365 0 0 1-2.896 1.88l-.001 19.16.004.001Z" fill="#007D73"/><path d="M22.665 58.445h-7.373A3.293 3.293 0 0 1 12 55.153V33.481a3.293 3.293 0 0 1 3.292-3.292h7.373a3.293 3.293 0 0 1 3.292 3.291V55.16a3.302 3.302 0 0 1-3.292 3.286Zm-7.373-26.15c-.653 0-1.185.532-1.185 1.185v21.673c0 .654.532 1.185 1.185 1.185h7.373a1.19 1.19 0 0 0 1.185-1.185V33.481c0-.654-.532-1.186-1.185-1.186h-7.373ZM30.487 48.754h9.97v2.107h-9.97v-2.107Z" fill="#007D73"/><path d="M17.873 35.324h2.143v2.107h-2.143v-2.107Z" fill="#007D73"/></svg>