<svg width="45" height="45" fill="none" xmlns="http://www.w3.org/2000/svg"><path d="M41.25 15.938A12.187 12.187 0 0 0 19.45 8.45a17.812 17.812 0 0 1 17.1 18.418l.624.165a2.437 2.437 0 0 0 2.986-2.983l-.24-.893c-.194-.722-.075-1.483.234-2.162a12.143 12.143 0 0 0 1.095-5.058Z" fill="#202940"/><path fill-rule="evenodd" clip-rule="evenodd" d="M33.75 26.25a15 15 0 0 1-21.469 13.538 3.133 3.133 0 0 0-2.156-.244l-2.3.617a2.437 2.437 0 0 1-2.984-2.985l.615-2.301a3.131 3.131 0 0 0-.244-2.156A15 15 0 1 1 33.75 26.25Zm-21.563 1.875a1.875 1.875 0 1 0 0-3.75 1.875 1.875 0 0 0 0 3.75Zm6.563 0a1.875 1.875 0 1 0 0-3.75 1.875 1.875 0 0 0 0 3.75Zm6.563 0a1.875 1.875 0 1 0 0-3.75 1.875 1.875 0 0 0 0 3.75Z" fill="#202940"/></svg>