<svg width="40" height="40" fill="none" xmlns="http://www.w3.org/2000/svg"><rect width="40" height="40" rx="20" fill="#D200A4"/><path d="M19.5 17.425a3.078 3.078 0 0 1 3.075 3.075.769.769 0 0 0 1.538 0 4.618 4.618 0 0 0-4.613-4.612.769.769 0 0 0 0 1.537Z" fill="#fff"/><path d="M19.5 14.35a6.156 6.156 0 0 1 6.15 6.15.769.769 0 0 0 1.538 0c0-4.239-3.45-7.688-7.688-7.688a.77.77 0 0 0 0 1.538Z" fill="#fff"/><path d="M19.5 9.737a.77.77 0 0 0 0 1.538c5.088 0 9.225 4.137 9.225 9.225a.769.769 0 0 0 1.538 0c0-5.935-4.83-10.763-10.763-10.763Z" fill="#fff"/><mask id="a" style="mask-type:luminance" maskUnits="userSpaceOnUse" x="7" y="11" width="22" height="22"><path d="M7.2 11.271h21.528V32.8H7.199V11.272Z" fill="#fff"/></mask><g mask="url(#a)"><path d="M27.956 26.65c-2.233 0-4.36-.485-6.32-1.443a.754.754 0 0 0-.588-.036.775.775 0 0 0-.442.393l-1.208 2.501a19.337 19.337 0 0 1-7.46-7.46l2.5-1.212a.771.771 0 0 0 .355-1.03 14.271 14.271 0 0 1-1.444-6.319.77.77 0 0 0-.769-.769H7.968a.77.77 0 0 0-.769.769C7.2 23.489 16.51 32.8 27.956 32.8a.769.769 0 0 0 .768-.768v-4.613a.769.769 0 0 0-.768-.769Z" fill="#fff"/></g></svg>