<svg width="1320" height="377" fill="none" xmlns="http://www.w3.org/2000/svg"><rect x="143.131" y="189.791" width="223" height="223" rx="31.5" transform="rotate(150 143.131 189.791)" stroke="url(#a)"/><rect x="204.504" y="156.979" width="223" height="223" rx="31.5" transform="rotate(135 204.504 156.979)" stroke="url(#b)"/><rect x="35.219" y="265.763" width="24" height="24" rx="4" transform="rotate(165 35.219 265.763)" fill="#CED6EA"/><rect x="128.766" y="66.01" width="24" height="24" rx="4" transform="rotate(135 128.766 66.01)" fill="#CED6EA"/><rect x="834.253" y="320.295" width="223" height="223" rx="31.5" transform="rotate(30 834.253 320.295)" stroke="url(#c)"/><rect x="775.152" y="283.55" width="223" height="223" rx="31.5" transform="rotate(15 775.152 283.55)" stroke="url(#d)"/><rect x="954.004" y="375.764" width="24" height="24" rx="4" transform="rotate(45 954.004 375.764)" fill="#CED6EA"/><rect x="1172.52" y="125.396" width="223" height="223" rx="31.5" transform="rotate(-120 1172.52 125.396)" stroke="url(#e)"/><rect x="1205.34" y="186.768" width="223" height="223" rx="31.5" transform="rotate(-135 1205.34 186.768)" stroke="url(#f)"/><rect x="1096.55" y="17.477" width="24" height="24" rx="4" transform="rotate(-105 1096.55 17.477)" fill="#CED6EA"/><rect x="1296.3" y="111.029" width="24" height="24" rx="4" transform="rotate(-135 1296.3 111.029)" fill="#CED6EA"/><defs><linearGradient id="a" x1="143.476" y1="190.313" x2="367.476" y2="414.313" gradientUnits="userSpaceOnUse"><stop stop-color="#CED6EA"/><stop offset=".568" stop-color="#CED6EA" stop-opacity="0"/></linearGradient><linearGradient id="b" x1="204.872" y1="157.318" x2="428.872" y2="381.318" gradientUnits="userSpaceOnUse"><stop stop-color="#CED6EA"/><stop offset=".568" stop-color="#CED6EA" stop-opacity="0"/></linearGradient><linearGradient id="c" x1="833.732" y1="319.95" x2="1057.73" y2="543.95" gradientUnits="userSpaceOnUse"><stop stop-color="#CED6EA"/><stop offset=".568" stop-color="#CED6EA" stop-opacity="0"/></linearGradient><linearGradient id="d" x1="774.46" y1="283.276" x2="998.46" y2="507.276" gradientUnits="userSpaceOnUse"><stop stop-color="#CED6EA"/><stop offset=".568" stop-color="#CED6EA" stop-opacity="0"/></linearGradient><linearGradient id="e" x1="1172" y1="126.417" x2="1396" y2="350.417" gradientUnits="userSpaceOnUse"><stop stop-color="#CED6EA"/><stop offset=".568" stop-color="#CED6EA" stop-opacity="0"/></linearGradient><linearGradient id="f" x1="1205" y1="187.814" x2="1429" y2="411.814" gradientUnits="userSpaceOnUse"><stop stop-color="#CED6EA"/><stop offset=".568" stop-color="#CED6EA" stop-opacity="0"/></linearGradient></defs></svg>