<svg width="42" height="27" viewBox="0 0 42 27" fill="none" xmlns="http://www.w3.org/2000/svg">
<path d="M26.67 3.29143H15.3305V23.8211H26.67V3.29143Z" fill="#CED6EA"/>
<path d="M16.0505 13.5563C16.0487 11.5791 16.4935 9.62747 17.351 7.84907C18.2086 6.07066 19.4565 4.51213 21.0003 3.29144C19.0885 1.7775 16.7925 0.836011 14.3747 0.574569C11.9569 0.313126 9.51488 0.742275 7.32774 1.81298C5.1406 2.88369 3.29658 4.55276 2.00648 6.62939C0.71637 8.70602 0.0322266 11.1064 0.0322266 13.5563C0.0322266 16.0061 0.71637 18.4066 2.00648 20.4832C3.29658 22.5598 5.1406 24.2289 7.32774 25.2996C9.51488 26.3703 11.9569 26.7995 14.3747 26.538C16.7925 26.2766 19.0885 25.3351 21.0003 23.8211C19.4565 22.6004 18.2086 21.0419 17.351 19.2635C16.4935 17.4851 16.0488 15.5334 16.0505 13.5563Z" fill="#818899"/>
<path d="M41.9677 13.5563C41.9678 16.0061 41.2837 18.4065 39.9937 20.4831C38.7037 22.5598 36.8597 24.2288 34.6726 25.2996C32.4855 26.3703 30.0435 26.7994 27.6258 26.538C25.208 26.2766 22.912 25.3351 21.0003 23.8211C22.5427 22.5992 23.7897 21.0404 24.6471 19.2623C25.5045 17.4842 25.95 15.5331 25.95 13.5563C25.95 11.5794 25.5045 9.6284 24.6471 7.85027C23.7897 6.07214 22.5427 4.51336 21.0003 3.29144C22.912 1.7775 25.208 0.836004 27.6258 0.574565C30.0435 0.313126 32.4855 0.742293 34.6726 1.81301C36.8597 2.88373 38.7037 4.5528 39.9937 6.62943C41.2837 8.70607 41.9678 11.1065 41.9677 13.5563Z" fill="#CED6EA"/>
<path d="M40.7313 21.6467V21.2264H40.8995V21.1408H40.4711V21.2264H40.6394V21.6467H40.7313ZM41.563 21.6467V21.14H41.4317L41.2807 21.4885L41.1296 21.14H40.9982V21.6467H41.0909V21.2645L41.2326 21.594H41.3287L41.4704 21.2636V21.6467H41.563Z" fill="#818899"/>
</svg>
