<svg width="73" height="83" fill="none" xmlns="http://www.w3.org/2000/svg"><path fill-rule="evenodd" clip-rule="evenodd" d="M33.8 74h-6.6c-6.222 0-9.334 0-11.266-1.934C14 70.134 14 67.022 14 60.8v-6.6c0-6.222 0-9.334 1.934-11.266C17.866 41 20.994 41 27.25 41c1 0 1.8 0 2.474.028a2.496 2.496 0 0 0-.032.403l-.017 4.676c0 1.81 0 3.41.173 4.699.188 1.398.619 2.795 1.76 3.937 1.14 1.138 2.539 1.57 3.936 1.759 1.289.173 2.89.173 4.7.173h6.685c.071.881.071 1.964.071 3.404v.721c0 6.222 0 9.334-1.934 11.266C43.134 74 40.022 74 33.8 74ZM19.363 61.625a1.237 1.237 0 0 1 1.237-1.237h13.2a1.237 1.237 0 1 1 0 2.474H20.6a1.237 1.237 0 0 1-1.238-1.237Zm0 5.775a1.237 1.237 0 0 1 1.237-1.238h9.075a1.237 1.237 0 1 1 0 2.475H20.6a1.237 1.237 0 0 1-1.238-1.237Z" fill="#202940"/><path d="m42.365 49.994-6.462-5.989c-1.839-1.706-2.758-2.56-3.888-3.005L32 45.596c0 3.961 0 5.943 1.194 7.174C34.39 54 36.313 54 40.158 54H46c-.59-1.183-1.651-2.165-3.635-4.006Z" fill="#202940"/></svg>