<svg width="49" height="37" viewBox="0 0 33 37" fill="none" xmlns="http://www.w3.org/2000/svg"><path fill-rule="evenodd" clip-rule="evenodd" d="m19.188 34.168-.894 1.695c-.797 1.51-2.789 1.51-3.588 0l-.894-1.695c-.693-1.313-1.04-1.971-1.597-2.334-.558-.364-1.259-.377-2.662-.405-2.072-.039-3.37-.181-4.46-.688a8.257 8.257 0 0 1-2.676-2.005 9.394 9.394 0 0 1-1.788-3C0 24.036 0 21.881 0 17.572v-1.85C0 9.669 0 6.64 1.216 4.417a8.819 8.819 0 0 1 2.723-3.054C5.923 0 8.626 0 14.025 0h4.95c5.4 0 8.101 0 10.086 1.363a8.818 8.818 0 0 1 2.723 3.052C33 6.641 33 9.67 33 15.723v1.85c0 4.31 0 6.464-.627 8.162a9.394 9.394 0 0 1-1.79 3.001 8.257 8.257 0 0 1-2.676 2.005c-1.09.507-2.388.647-4.46.688-1.403.028-2.104.04-2.662.405-.558.363-.904 1.02-1.597 2.334ZM9.9 18.035c-.328 0-.643.146-.875.406-.232.26-.363.613-.363.981s.13.721.363.981c.232.26.547.407.875.407h9.075c.328 0 .643-.147.875-.407.232-.26.362-.613.362-.98 0-.369-.13-.722-.362-.982a1.174 1.174 0 0 0-.875-.406H9.9Zm-1.238-5.087c0-.368.13-.72.363-.98.232-.261.547-.407.875-.407h13.2c.328 0 .643.146.875.406.232.26.362.613.362.981s-.13.721-.362.981c-.232.26-.547.406-.875.406H9.9c-.328 0-.643-.146-.875-.406a1.477 1.477 0 0 1-.363-.98Z" fill="#202940"/></svg>