<svg width="70" height="71" fill="none" xmlns="http://www.w3.org/2000/svg"><rect y=".5" width="70" height="70" rx="35" fill="#FFD2B9"/><path fill-rule="evenodd" clip-rule="evenodd" d="M20.416 22.555a.957.957 0 1 1-1.912-.089.957.957 0 0 1 1.912.089Zm38.187 15.9-2.872 1.114a2.178 2.178 0 0 1-1.673-.04A2.173 2.173 0 0 1 52.9 38.32l-.26-.67-2.384.994c.117.65.022 1.337-.315 1.95a2.978 2.978 0 0 1-1.927 1.467 2.974 2.974 0 0 1-1.989 3.831c-.416.121-.844.15-1.26.09a2.974 2.974 0 0 1-2.153 3.082 2.972 2.972 0 0 1-1.49.045 2.964 2.964 0 0 1-.364 1.555 3.027 3.027 0 0 1-2.632 1.557c-.503 0-.997-.13-1.441-.386l-.813-.467c-.39.558-.952.968-1.617 1.17a3.034 3.034 0 0 1-2.327-.227 3.047 3.047 0 0 1-1.42-1.623 3.06 3.06 0 0 1-2.666-.102 3.05 3.05 0 0 1-1.338-1.43 3.053 3.053 0 0 1-2.921.026 3.032 3.032 0 0 1-1.48-1.808 3.06 3.06 0 0 1-.095-1.381 3.043 3.043 0 0 1-3.017-2.166 3.033 3.033 0 0 1 .227-2.326l.779-1.456c-.176-.412-.261-.864-.343-1.305-.15-.805-.267-1.304-.632-1.445a56.34 56.34 0 0 1-1.694-.738l-.321.727A2.192 2.192 0 0 1 14.12 38.4l-2.818-1.246a2.19 2.19 0 0 1-1.116-2.885l6.47-14.638a2.17 2.17 0 0 1 1.212-1.154 2.17 2.17 0 0 1 1.673.038l2.818 1.246a2.19 2.19 0 0 1 1.116 2.885l-.495 1.121 1.857.857c.019.009.037.018.056.029.979.55 2.195.29 3.603-.013 1.814-.39 4.042-.867 6.21.57 3.43-2.111 6.067-1.036 8.014-.24 1.422.582 2.34.915 3.224.454l1.62-.867-.448-1.157a2.173 2.173 0 0 1 .04-1.673 2.173 2.173 0 0 1 1.209-1.157l2.872-1.114a2.171 2.171 0 0 1 1.673.04c.536.236.947.666 1.158 1.209l5.783 14.92a2.19 2.19 0 0 1-1.25 2.829h.001Zm-36.556-16.44a.626.626 0 0 0-.32-.825l-2.817-1.245a.627.627 0 0 0-.825.32l-6.468 14.634a.626.626 0 0 0 .32.825l2.817 1.245a.627.627 0 0 0 .825-.32l6.468-14.634Zm.787 22.098 1.848-3.198c.31-.71.023-1.547-.662-1.913a1.495 1.495 0 0 0-2.022.612l-1.402 2.622c-.187.35-.226.753-.11 1.137.115.384.372.697.722.884a1.5 1.5 0 0 0 1.627-.144Zm3.51 3.07 2.041-3.95a1.511 1.511 0 0 0-.756-1.614 1.5 1.5 0 0 0-1.636.15l-2.285 4.014c-.187.35-.226.753-.11 1.137.115.384.372.697.722.884.725.388 1.633.11 2.025-.62Zm4.127 1.61 1.81-3.479a1.511 1.511 0 0 0-.756-1.613 1.512 1.512 0 0 0-1.756.258l-1.973 3.822a1.498 1.498 0 0 0 .784 1.426c.644.346 1.45.167 1.89-.413Zm4.215 1.527 1.346-2.514c.187-.35.225-.754.108-1.139a1.483 1.483 0 0 0-.72-.882 1.511 1.511 0 0 0-1.757.259l-1.776 3.413c-.064.604.24 1.187.779 1.475.35.187.753.226 1.137.11.382-.117.697-.373.884-.722Zm4.157-2.343-1.086-.61c-.035.407-.151.806-.349 1.176l-.78 1.459.834.478c.315.181.687.225 1.048.124.373-.105.693-.357.878-.694a1.441 1.441 0 0 0-.545-1.933Zm9.155-10.081-7.638-4.354c-1.308-.745-2.934-.087-4.816.675-2.765 1.12-6.206 2.513-9.148-1.273a1.047 1.047 0 0 1 .298-1.544c2.156-1.259 3.977-2.632 5.413-4.083.4-.404.803-.773 1.207-1.106-1.45-.694-2.934-.377-4.49-.043-1.564.336-3.181.683-4.668-.137l-1.807-.834-4.389 9.93c.9.4 1.446.638 1.628.71 1.084.42 1.378 1.47 1.55 2.338a3.064 3.064 0 0 1 3.617-.551 3.055 3.055 0 0 1 1.59 2.313 3.055 3.055 0 0 1 2.02.303 3.045 3.045 0 0 1 1.503 1.874 3.052 3.052 0 0 1 2.391.21 3.045 3.045 0 0 1 1.503 1.873 3.05 3.05 0 0 1 3.354 1.018l3.986 2.229c.328.182.71.224 1.076.12.37-.108.676-.35.86-.684.375-.683.12-1.554-.569-1.942l-5.646-3.194a.78.78 0 1 1 .772-1.359l6.91 3.888c.33.183.716.224 1.084.118.368-.107.67-.348.853-.68a1.443 1.443 0 0 0-.57-1.942c-1.618-.907-3.453-1.935-5.261-2.97a.781.781 0 0 1 .776-1.356c1.802 1.032 3.635 2.058 5.25 2.964.325.182.705.224 1.07.12.373-.107.68-.35.864-.686.374-.68.117-1.552-.572-1.945Zm4.077-1.706-3.941-10.165-1.46.78c-1.58.823-3.087.207-4.545-.388-1.986-.812-4.04-1.652-7.003.38-.63.431-1.27.975-1.909 1.62-1.412 1.427-3.162 2.777-5.208 4.019 2.108 2.293 4.362 1.38 6.948.333 2.07-.838 4.21-1.704 6.177-.583l7.638 4.353c.322.183.597.418.822.687l2.48-1.035Zm6.32-.001-5.784-14.92c0-.108-.166-.247-.247-.3a.633.633 0 0 0-.562-.057l-2.872 1.114a.619.619 0 0 0-.345.331.618.618 0 0 0-.012.477l5.783 14.92a.62.62 0 0 0 .332.344.62.62 0 0 0 .478.013l2.872-1.114a.625.625 0 0 0 .357-.808Zm-7.261-13.695a.959.959 0 0 0-.957.957c0 .527.43.957.957.957a.958.958 0 0 0 0-1.914Z" fill="#F7752C"/></svg>