<svg width="74" height="74" fill="none" xmlns="http://www.w3.org/2000/svg"><mask id="a" style="mask-type:luminance" maskUnits="userSpaceOnUse" x="0" y="0" width="74" height="74"><path d="M0 0h74v74H0V0Z" fill="#fff"/></mask><g mask="url(#a)"><path fill-rule="evenodd" clip-rule="evenodd" d="M73.898 31.778a1.34 1.34 0 0 0-.292-.439L57.462 15.196a1.344 1.344 0 0 0-1.903 0 1.344 1.344 0 0 0 0 1.902l13.85 13.849H48.437v-29.6c0-.744-.601-1.345-1.346-1.345H1.346l-.122.026-.213.041C.886.103.772.15.664.215L.552.26.441.364.374.427a1.323 1.323 0 0 0-.248.367l-.03.081a1.35 1.35 0 0 0-.095.472V63.24c0 .168.039.327.097.478l.071.138.178.264.121.12.258.176.15.075.062.03L30.54 73.94a1.355 1.355 0 0 0 1.202-.195c.347-.254.551-.658.551-1.087v-8.073h14.8c.744 0 1.345-.601 1.345-1.346V33.64h20.97L55.56 47.488a1.344 1.344 0 0 0 .951 2.297c.345 0 .69-.132.951-.395l16.144-16.143a1.347 1.347 0 0 0 .292-1.466v-.003ZM28.16 43.554a1.344 1.344 0 0 1-1.75.752l-6.727-2.691a1.346 1.346 0 0 1 .998-2.5l6.727 2.69a1.346 1.346 0 0 1 .752 1.75Zm17.585 18.337H32.292V10.763c0-.586-.38-1.104-.938-1.282l-21.341-6.79h35.734v59.2Z" fill="#A00675"/></g></svg>