<svg width="47" height="47" viewBox="0 0 37 37" fill="none" xmlns="http://www.w3.org/2000/svg"><path fill-rule="evenodd" clip-rule="evenodd" d="m15.972 30.105.386-.652c.616-1.043.925-1.564 1.418-1.856.493-.291 1.135-.311 2.417-.353 1.204-.038 2.014-.143 2.706-.43a5.943 5.943 0 0 0 3.216-3.216c.453-1.093.453-2.477.453-5.246v-1.19c0-3.891 0-5.837-.876-7.266a5.943 5.943 0 0 0-1.962-1.963c-1.43-.875-3.376-.875-7.266-.875h-3.567c-3.892 0-5.837 0-7.266.875a5.943 5.943 0 0 0-1.963 1.964c-.876 1.428-.876 3.377-.876 7.265v1.188c0 2.77 0 4.155.452 5.248a5.942 5.942 0 0 0 3.218 3.216c.692.287 1.5.392 2.704.432 1.284.04 1.927.06 2.419.351.491.292.801.813 1.418 1.856l.385.652a1.51 1.51 0 0 0 2.584 0Zm3.908-11.16a1.486 1.486 0 1 0 0-2.972 1.486 1.486 0 0 0 0 2.972Zm-3.715-1.486a1.488 1.488 0 0 1-2.553 1.082 1.488 1.488 0 0 1-.418-1.082 1.486 1.486 0 0 1 2.972 0M9.48 18.945a1.486 1.486 0 1 0 0-2.972 1.486 1.486 0 0 0 0 2.972Z" fill="#202940"/><path d="M23.096 0c1.775 0 3.187 0 4.32.108 1.16.11 2.143.342 3.017.879a6.686 6.686 0 0 1 2.206 2.204c.537.874.768 1.856.879 3.017.108 1.135.108 2.546.108 4.322v1.213c0 1.264 0 2.27-.056 3.083-.057.834-.175 1.551-.453 2.22a6.688 6.688 0 0 1-3.743 3.67c-.17.066-.342.128-.515.188.022-.724.022-1.547.022-2.475v-1.377c0-1.851 0-3.404-.12-4.665-.127-1.32-.4-2.559-1.098-3.7a8.255 8.255 0 0 0-2.726-2.725c-1.138-.697-2.377-.972-3.7-1.096-1.26-.12-2.812-.12-4.665-.12h-3.785c-1.258 0-2.377 0-3.36.036.046-.159.107-.339.181-.555.123-.361.286-.707.486-1.033A6.686 6.686 0 0 1 12.3.985c.876-.535 1.858-.768 3.018-.879C16.45 0 17.863 0 19.639 0h3.458Z" fill="#202940"/></svg>