<svg width="70" height="71" fill="none" xmlns="http://www.w3.org/2000/svg"><rect y=".5" width="70" height="70" rx="35" fill="#FFA5F9"/><path d="M26.667 35.5a2.083 2.083 0 1 0 4.167 0 2.083 2.083 0 0 0-4.167 0ZM39.167 35.5a2.083 2.083 0 1 0 4.167 0 2.083 2.083 0 0 0-4.167 0Z" stroke="#C5019F" stroke-width="2" stroke-linecap="round" stroke-linejoin="round"/><path d="M42.292 45.917c0 2.083 3.125 6.25 4.166 6.25 3.125 0 5.902-3.473 7.292-6.25 1.39-3.473 1.042-12.152-3.125-23.959-3.035-2.114-6.25-2.791-9.375-3.124l-2.025 4.006a24.818 24.818 0 0 0-8.444 0l-2.031-4.006c-3.125.333-6.34 1.01-9.375 3.125-4.167 11.806-4.515 20.485-3.125 23.958 1.39 2.777 4.167 6.25 7.292 6.25 1.041 0 4.166-4.167 4.166-6.25" stroke="#C5019F" stroke-width="2" stroke-linecap="round" stroke-linejoin="round"/><path d="M24.583 44.875c7.292 2.083 13.542 2.083 20.833 0" stroke="#C5019F" stroke-width="2" stroke-linecap="round" stroke-linejoin="round"/></svg>