<svg width="68" height="74" fill="none" xmlns="http://www.w3.org/2000/svg"><path d="M67.7 44.044c-.065-1.205-.255-2.475-1.143-3.426-.89-1.016-5.903-2.095-7.108-2.476l-.19-.064-.762-.19c-.063.254-.063.507-.127.761-.635 3.745-1.523 7.362-2.92 10.79 0 0-.253-2.095-.507-4.126-.254-1.84-.508-3.68-.508-3.745.064-.127.128-.253.128-.317.063-.127.127-.19.127-.317 0-.064 0-.064.064-.064.063-.127.127-.254.127-.381.063-.064.063-.127.063-.127.064-.128.19-.318.19-.508a.915.915 0 0 0-.127-.444l-.063-.064v-.063s0-.064-.064-.064c0 0 0-.063-.064-.063v-.064l-.127-.127c-.063-.064-.127-.064-.19-.064h-.127c.063.002.063.002 0 .002h-2.538s-.064 0-.128.064h-.127c-.063 0-.127 0-.19.064-.064.063-.127.063-.19.254l-.127.127v.063h.063a1.177 1.177 0 0 0-.127.444c0 .19.127.38.19.508a.197.197 0 0 1 .064.127c.063.127.127.253.127.38 0 .064 0 .064.064.064.063.064.063.19.127.318.063.127.063.19.127.317 0 .064-.254 1.904-.508 3.745-.253 1.904-.507 3.87-.57 4.062-.318-.826-.636-1.65-.89-2.539l-1.142-4.253c-.381-1.523-.635-3.11-.889-4.633-.127 0-.19.063-.317.063h-.064c-.063 0-.127.064-.19.064l-.19.064c-.19.063-.318.063-.508.127-1.079.381-2.221.635-3.3.889-.952.253-1.904.38-2.793.825-.761.444-1.015 1.333-1.333 2.094-.761 2.221-.635 4.633-.698 6.981v2.094c.064 2.285.128 4.57.254 6.918.064 1.904.19 3.744.318 5.584 0 .382.063.698.063 1.08 0 .38.064.76.064 1.078.063.572.444 1.397.952 1.714.697.381 1.523.698 2.538 1.079.19.064.444.127.698.254.317.127.38.127.444.444C44.28 72.35 46.31 74 49.358 74h7.426c3.046 0 5.077-1.65 5.712-4.634.063-.254.063-.317.444-.444.253-.063.444-.127.697-.254 1.016-.38 1.84-.697 2.539-1.079.57-.317.951-1.078.951-1.713 0-.381.064-.762.064-1.08 0-.38.063-.697.063-1.078.128-1.777.19-3.617.318-5.395.127-2.348.254-4.76.254-7.107V49.12c0-1.713-.063-3.426-.127-5.077ZM51.198 13.9c-.508-.19-1.016-.318-1.523-.445-.19-.063-.318-.063-.572-.127.19.571.318 1.015.572 1.587-1.08 0-1.968-.444-2.983-.635-.127 0-.254-.064-.381-.064a.48.48 0 0 1 .127.254c.317.508.571.952.951 1.523-.825 0-1.586.064-2.347.064h-.508v.127c.127.063.19.127.317.19.318.19.698.381 1.08.571-1.206 1.333-1.27 2.983-1.08 4.633.064 1.016.128 1.968.19 2.983-.57.064-1.078.318-1.142 1.015v.128c-.063 1.205.19 2.348.889 3.363.317.381.635.698 1.205.444.318.698.508 1.396.825 2.03.762 1.587 1.777 2.92 3.49 3.555 1.715.635 3.491.635 5.268 0 1.84-.698 2.856-2.158 3.617-3.808.19-.444.382-.952.572-1.396.063-.128.254-.254.317-.254.444.063.698-.128.889-.444a4.615 4.615 0 0 0 .952-2.538c.063-.762.063-1.143-.19-1.46-.19-.254-.445-.382-.89-.635 0-.572.064-1.143.064-1.714 0-.318.064-.635.064-.952 0-.635.064-1.269.064-1.904 0-1.205-.445-2.284-1.27-3.173-1.205-1.206-2.665-1.904-4.315-2.222-1.397-.19-2.856-.125-4.252-.697Zm6.41 18.277c-1.143 1.714-2.73 2.476-4.634 2.602-2.157-.127-3.744-.951-4.823-2.792-.635-1.08-1.205-2.158-1.523-3.364-.063-.127-.063-.254-.127-.38.317.38.761.634 1.27.697.443.064.888.127 1.332.127.444 0 .825-.063 1.205-.127.952-.127 1.587-.698 1.904-1.523.128-.444.254-.889.381-1.333 0-.127.064-.253.064-.38.064-.318.19-.318.381-.318.19 0 .318.064.381.317 0 .128.064.254.064.381.127.445.19.89.38 1.333.318.825.953 1.397 1.905 1.523.38.064.825.127 1.205.127.444 0 .89-.063 1.333-.127.508-.064.889-.254 1.206-.635-.508 1.334-1.08 2.666-1.904 3.873Zm-8.441-5.584c.698 0 1.269-.572 1.269-1.27 0-.19-.064-.317-.127-.507.317.063.571.127.889.254.317.127.444.38.444.697v.318c0 .127 0 .317-.064.444-.127.952-.635 1.46-1.523 1.65-.254.064-.444.064-.698.064h-.571c-.19 0-.381 0-.571-.064-.698-.063-1.143-.381-1.397-.889-.127-.38-.254-.825-.254-1.269-.063-.698.128-.951.825-1.142.19-.064.382-.064.572-.128-.064.19-.127.318-.127.508.063.762.634 1.334 1.333 1.334Zm7.425 0c.698 0 1.27-.572 1.27-1.27 0-.19-.064-.38-.128-.57.254.063.508.063.761.126.698.19.89.444.826 1.143 0 .444-.128.889-.254 1.269-.19.508-.635.825-1.397.889-.19 0-.38 0-.57.063H56.527c-.254 0-.444 0-.698-.063-.888-.192-1.396-.7-1.523-1.651 0-.127 0-.317-.064-.444v-.318c-.063-.38.128-.57.444-.697.254-.064.508-.128.698-.19-.063.127-.063.317-.063.444.001.697.572 1.269 1.27 1.269Zm-.444-6.918c.064 0 .127.064.19.127.19.698.952 2.856 3.364 3.49.063.064.127.191.19.318.063.128.127.318.127.444-.508-.063-.952-.127-1.333-.127-.698-.064-1.269-.064-1.84-.064-.825 0-1.523.064-2.221.128-.508.063-1.08.127-1.587.127-.571 0-1.079-.064-1.587-.127a24.587 24.587 0 0 0-2.221-.128c-.571 0-1.205 0-1.84.064-.381 0-.825.064-1.27.127.064-.253.254-.507.445-.697 1.713.062 6.346-.128 9.583-3.682Z" fill="#031F4E"/><path d="M8.044 37a2.112 2.112 0 0 1-2.094-2.094V3.936h44.87v6.98l.317.064c.38.127.951.254 1.523.508.317.127.951.19 1.586.253h.572V3.935c1.015-.063 1.84-.951 1.84-1.967A1.955 1.955 0 0 0 54.818 0H2.015C1 .064.175.952.175 1.968c0 1.079.825 1.904 1.84 1.967v30.97a6.094 6.094 0 0 0 6.093 6.093h18.658v1.968c-1.523.698-2.475 2.158-2.475 3.808a4.184 4.184 0 0 0 4.188 4.188c2.285 0 4.126-1.84 4.126-4.188 0-1.65-.952-3.11-2.476-3.808v-1.968h6.283l.127-.317c.254-.635.635-1.904 1.65-2.92l.762-.76L8.044 37Z" fill="#031F4E"/></svg>