<svg width="197" height="197" fill="none" xmlns="http://www.w3.org/2000/svg"><path d="M170.532 98.558c10.776-16.42 13.826-32.526 7.468-44.613-.057.085-.143.17-.229.257-.457.427-.912.826-1.424 1.169 1.824 3.678 2.708 7.811 2.708 12.258 0 8.78-3.449 18.757-9.891 28.879-6.072-8.838-14.112-17.39-23.605-25.172-2.024-12.173-5.417-23.433-10.062-33.126a89.779 89.779 0 0 1 3.876-.086c5.217 0 10.091.512 14.51 1.539.143-.455.285-.94.484-1.396.085-.2.171-.4.285-.599-6.015-1.453-12.799-1.967-20.183-1.538-9.236-18.334-22.321-28.796-35.976-28.796-14.112 0-26.997 10.776-36.061 28.792-6.727-.37-13.057.029-18.786 1.227.057.143.143.285.2.427.228.54.457 1.083.627 1.624 5.188-1.083 10.917-1.482 16.96-1.197-4.447 9.378-7.896 20.581-10.005 33.126C41.621 79.4 33.67 87.98 27.767 96.505c-.2-.286-.4-.599-.57-.884-9.807-15.765-11.944-30.332-6.1-41.05a12.354 12.354 0 0 1-1.482-1.511c-.029-.029-.057-.086-.086-.114-6.642 11.517-4.561 27.053 5.844 43.786.343.57.712 1.112 1.083 1.682-11.06 16.875-13.968 33.467-6.927 45.668 6.3 10.889 20.07 16.904 38.229 16.904 1.539 0 3.135-.057 4.76-.143a57.322 57.322 0 0 0 1.967 3.735c.143-.143.285-.257.457-.4.4-.314.827-.627 1.283-.884-.485-.826-.94-1.71-1.396-2.594 10.662-.855 22.121-3.563 33.639-7.839 11.63 4.361 23.09 7.041 33.638 7.896-8.723 16.649-20.782 26.768-33.61 26.768-4.39 0-8.723-1.112-12.913-3.392-.372.484-.741.941-1.17 1.368-.085.085-.171.2-.285.257 4.618 2.594 9.464 3.904 14.367 3.904 14.083 0 26.968-10.776 36.032-28.764 1.568.114 3.136.143 4.648.143 5.9 0 11.46-.627 16.505-1.968l-.085-.114a13.522 13.522 0 0 1-.998-1.796c-5.701 1.396-12.116 1.91-19.015 1.568 4.448-9.35 7.897-20.525 9.977-33.069 9.807-8.068 17.788-16.649 23.69-25.172.2.286.4.598.57.884 9.093 14.652 11.603 28.25 7.241 38.684.598.484 1.141.998 1.625 1.596 5.103-11.231 2.651-25.799-7.042-41.393a30.605 30.605 0 0 0-1.112-1.706m-24.859-.057c0 8.866-.713 17.59-2.082 26.028-6.527 5.388-13.769 10.319-21.523 14.795a163.7 163.7 0 0 1-23.519 11.232c-7.925-2.966-15.879-6.728-23.633-11.204-7.754-4.476-14.966-9.435-21.494-14.766-1.368-8.353-2.082-17.133-2.082-26.085 0-8.866.713-17.59 2.053-26.027 6.614-5.389 13.855-10.377 21.523-14.824 7.726-4.448 15.651-8.21 23.548-11.203 7.868 2.965 15.822 6.727 23.604 11.203 7.754 4.476 14.967 9.435 21.523 14.767 1.37 8.352 2.082 17.161 2.082 26.084Zm-2.623-29.192c-6.129-4.875-12.799-9.408-19.898-13.512a168.991 168.991 0 0 0-21.608-10.491c10.861-3.876 21.608-6.244 31.642-6.956 4.449 9.037 7.784 19.585 9.864 30.959ZM98.493 9.47c12.628 0 24.83 9.75 33.667 26.825-10.69.827-22.12 3.535-33.61 7.84-11.63-4.334-23.09-7.013-33.666-7.868C73.606 19.618 85.665 9.47 98.493 9.47ZM63.828 38.348c9.893.684 20.668 3.078 31.643 6.984-7.27 2.851-14.539 6.386-21.609 10.462-7.041 4.076-13.711 8.58-19.898 13.484 2.139-11.66 5.56-22.122 9.864-30.93M50.915 74.551c-1.14 7.782-1.71 15.821-1.71 23.945 0 8.209.57 16.277 1.739 24.031-8.78-7.525-16.22-15.622-21.866-23.974 5.474-8.124 12.83-16.306 21.837-24.003m-29.532 68.473c-6.387-11.118-3.621-26.654 6.442-42.532 6.1 8.838 14.14 17.418 23.633 25.229 2.024 12.116 5.416 23.348 10.033 33.012-19.242.912-33.78-4.819-40.108-15.708M63.8 158.619c-4.419-9.036-7.725-19.527-9.835-30.873 6.1 4.845 12.77 9.35 19.898 13.455 7.127 4.104 14.367 7.611 21.551 10.491-10.832 3.847-21.578 6.214-31.614 6.927m69.358-.029c-9.891-.712-20.639-3.078-31.585-6.927 7.241-2.88 14.51-6.415 21.58-10.491 7.098-4.105 13.769-8.609 19.898-13.483-2.167 11.63-5.56 22.092-9.893 30.901m12.914-36.147a165.452 165.452 0 0 0 1.739-23.945c0-8.183-.598-16.249-1.739-24.003 8.78 7.468 16.191 15.593 21.837 23.917-5.445 8.152-12.8 16.334-21.837 24.031Z" fill="#FF64AC"/><path d="M97.71 75.996 63.1 87.074a2.276 2.276 0 0 0-1.417 2.112 2.274 2.274 0 0 0 1.414 2.117l9.97 4.099 24.545 6.941c.299.128.622.188.92.188.268 0 .523-.048.725-.143l24.798-7.03 9.852-4.056a2.28 2.28 0 0 0 1.417-2.118c-.003-.929-.559-1.759-1.5-2.14L99.362 76.018c-.548-.217-1.173-.216-1.651-.022Z" fill="#FF64AC"/><path d="M98.522 104.657a4.736 4.736 0 0 1-1.767-.343l-24.26-6.87-.2-.086v15.308a8.468 8.468 0 0 0 8.466 8.467h35.492a8.467 8.467 0 0 0 8.466-8.467V97.36l-24.772 7.042a3.88 3.88 0 0 1-1.425.255ZM30.677 56.088c6.8 0 12.332-5.533 12.332-12.332a12.32 12.32 0 0 0-1.1-5.094 12.368 12.368 0 0 0-11.232-7.223c-6.8 0-12.332 5.528-12.332 12.319 0 2.896 1.035 5.718 2.908 7.935a12.236 12.236 0 0 0 9.424 4.395M167.761 56.095c3.19 0 6.218-1.223 8.524-3.44a12.207 12.207 0 0 0 3.799-8.902c0-1.745-.368-3.453-1.094-5.083-2.003-4.397-6.412-7.239-11.229-7.239a12.31 12.31 0 0 0-11.42 7.626 12.442 12.442 0 0 0-.921 4.696c0 2.913 1.037 5.732 2.911 7.93a12.21 12.21 0 0 0 9.43 4.412ZM85.244 170.359c-1.99-4.387-6.397-7.223-11.232-7.223-2.803 0-5.547.964-7.728 2.715-2.919 2.368-4.595 5.866-4.595 9.589 0 2.89 1.03 5.715 2.897 7.954a12.248 12.248 0 0 0 9.427 4.387c3.329 0 6.555-1.368 8.857-3.755a12.253 12.253 0 0 0 3.487-8.586 12.138 12.138 0 0 0-1.112-5.08M167.754 138.793c-6.8 0-12.332 5.534-12.332 12.332 0 2.381.681 4.699 1.973 6.699a.95.95 0 0 0 .099.128 12.277 12.277 0 0 0 10.26 5.505c6.799 0 12.332-5.532 12.332-12.332 0-2.908-1.036-5.732-2.911-7.957a12.32 12.32 0 0 0-9.421-4.375Z" fill="#FF64AC"/></svg>