<svg width="70" height="71" fill="none" xmlns="http://www.w3.org/2000/svg"><rect y=".5" width="70" height="70" rx="35" fill="#8AE4B3"/><path d="M17.123 39.616a2.123 2.123 0 0 0 0 4.245h7.497l-4.18 8.36a2.124 2.124 0 0 0 3.8 1.899l5.13-10.259H40.64l5.126 10.258a2.121 2.121 0 0 0 3.793-1.9l-4.178-8.358h7.498a2.122 2.122 0 0 0 0-4.244h-.047V19.975h.047a2.123 2.123 0 0 0 0-4.244H17.122a2.122 2.122 0 0 0 0 4.244h.047v19.642h-.046Zm5.926 13.901a.8.8 0 0 1-1.067.355.79.79 0 0 1-.35-1.056l4.48-8.955h1.769l-4.832 9.656Zm25.315-.704a.788.788 0 1 1-1.408.709l-4.826-9.661h1.76l4.474 8.953Zm5.303-11.074a.79.79 0 0 1-.79.789H17.123a.79.79 0 0 1 0-1.579h35.756a.79.79 0 0 1 .789.79ZM16.333 17.854a.79.79 0 0 1 .79-.79h35.755a.789.789 0 0 1 0 1.578H17.122a.79.79 0 0 1-.788-.788Zm2.17 2.121h32.994v19.642H18.502V19.975Z" fill="#278552"/><path d="M35 21.492a8.306 8.306 0 0 0-8.303 8.304 8.305 8.305 0 0 0 14.176 5.87 8.303 8.303 0 0 0 2.431-5.87 8.31 8.31 0 0 0-8.303-8.304Zm0 15.273a6.97 6.97 0 1 1 6.971-6.97 6.98 6.98 0 0 1-6.97 6.97Z" fill="#278552"/><path d="m38.441 28.68-4.622-2.606a1.28 1.28 0 0 0-1.91 1.116v5.21a1.282 1.282 0 0 0 1.908 1.115l4.622-2.605a1.283 1.283 0 0 0 .573-1.558 1.281 1.281 0 0 0-.572-.673h.001Zm-5.196 3.63v-5.03l4.46 2.516-4.46 2.514Z" fill="#278552"/></svg>