<svg width="70" height="71" fill="none" xmlns="http://www.w3.org/2000/svg"><rect y=".26" width="70" height="70" rx="35" fill="#C6B9FF"/><path fill-rule="evenodd" clip-rule="evenodd" d="M20.416 22.315a.957.957 0 1 1-1.912-.089.957.957 0 0 1 1.912.089Zm38.187 15.9-2.872 1.114a2.178 2.178 0 0 1-1.673-.04A2.173 2.173 0 0 1 52.9 38.08l-.26-.67-2.384.994c.117.65.022 1.337-.315 1.95a2.978 2.978 0 0 1-1.927 1.468 2.974 2.974 0 0 1-1.989 3.83c-.416.121-.844.15-1.26.091a2.973 2.973 0 0 1-2.153 3.082 2.97 2.97 0 0 1-1.49.045 2.964 2.964 0 0 1-.364 1.554 3.027 3.027 0 0 1-2.632 1.557c-.503 0-.997-.13-1.441-.386l-.813-.466a3.083 3.083 0 0 1-2.511 1.302 3.047 3.047 0 0 1-2.852-1.983 3.06 3.06 0 0 1-2.667-.102 3.05 3.05 0 0 1-1.338-1.43 3.053 3.053 0 0 1-2.921.027 3.032 3.032 0 0 1-1.48-1.809 3.06 3.06 0 0 1-.095-1.381 3.044 3.044 0 0 1-3.017-2.166 3.034 3.034 0 0 1 .227-2.326l.779-1.456c-.176-.412-.261-.864-.343-1.305-.15-.805-.267-1.303-.632-1.445-.209-.081-.753-.318-1.694-.738l-.321.727a2.192 2.192 0 0 1-2.886 1.117l-2.818-1.246a2.19 2.19 0 0 1-1.116-2.885l6.47-14.637a2.17 2.17 0 0 1 1.212-1.154 2.17 2.17 0 0 1 1.673.038l2.818 1.245a2.19 2.19 0 0 1 1.116 2.885l-.495 1.122 1.857.857c.019.008.037.018.056.028.979.55 2.195.29 3.603-.012 1.814-.39 4.042-.868 6.21.569 3.43-2.11 6.067-1.035 8.014-.24 1.422.582 2.34.915 3.224.455l1.62-.867-.448-1.157a2.173 2.173 0 0 1 .04-1.674 2.173 2.173 0 0 1 1.209-1.157l2.872-1.114a2.17 2.17 0 0 1 1.673.04c.536.236.947.666 1.158 1.21l5.783 14.918a2.19 2.19 0 0 1-1.25 2.83h.001Zm-36.556-16.44a.626.626 0 0 0-.32-.825l-2.817-1.245a.627.627 0 0 0-.825.32l-6.468 14.634a.626.626 0 0 0 .32.825l2.817 1.245a.627.627 0 0 0 .825-.32l6.468-14.633Zm.787 22.099 1.848-3.199a1.495 1.495 0 0 0-.662-1.913 1.495 1.495 0 0 0-2.022.612l-1.402 2.623c-.187.349-.226.753-.11 1.136.115.384.372.697.722.884a1.5 1.5 0 0 0 1.627-.144Zm3.51 3.07 2.041-3.95a1.511 1.511 0 0 0-.756-1.615 1.5 1.5 0 0 0-1.636.15l-2.285 4.015c-.187.349-.226.753-.11 1.136.115.384.372.698.722.885.725.387 1.633.109 2.025-.621Zm4.127 1.61 1.81-3.48a1.511 1.511 0 0 0-.756-1.612 1.512 1.512 0 0 0-1.756.258l-1.973 3.822a1.498 1.498 0 0 0 .784 1.426c.644.345 1.45.166 1.89-.414Zm4.215 1.526 1.346-2.514c.187-.35.225-.754.108-1.138a1.483 1.483 0 0 0-.72-.883 1.511 1.511 0 0 0-1.757.26l-1.776 3.413c-.064.603.24 1.186.779 1.474.35.187.753.226 1.137.11a1.48 1.48 0 0 0 .884-.722Zm4.157-2.343-1.086-.61c-.035.407-.151.806-.349 1.176l-.78 1.459.834.478c.315.181.687.225 1.048.124.373-.104.693-.357.878-.693a1.441 1.441 0 0 0-.545-1.934Zm9.155-10.08-7.638-4.355c-1.308-.745-2.934-.087-4.816.675-2.765 1.12-6.206 2.513-9.148-1.273a1.046 1.046 0 0 1 .298-1.544c2.156-1.258 3.977-2.632 5.413-4.083.4-.403.803-.773 1.207-1.106-1.45-.694-2.934-.377-4.49-.043-1.564.336-3.181.683-4.668-.137l-1.807-.833-4.389 9.928c.9.401 1.446.64 1.628.71 1.084.422 1.378 1.472 1.55 2.34a3.064 3.064 0 0 1 3.617-.552 3.055 3.055 0 0 1 1.59 2.314 3.055 3.055 0 0 1 3.523 2.176 3.051 3.051 0 0 1 2.391.21 3.045 3.045 0 0 1 1.503 1.873 3.05 3.05 0 0 1 3.354 1.018l3.986 2.229c.328.182.71.224 1.076.12.37-.107.676-.35.86-.684.375-.683.12-1.553-.569-1.942l-5.646-3.194a.78.78 0 1 1 .772-1.358l6.91 3.888c.33.182.716.224 1.084.117.368-.106.67-.348.853-.68a1.443 1.443 0 0 0-.57-1.942c-1.618-.907-3.453-1.935-5.261-2.97a.781.781 0 0 1 .776-1.355c1.802 1.031 3.635 2.057 5.25 2.963.325.182.705.224 1.07.12.373-.107.68-.35.864-.685.374-.68.117-1.552-.572-1.945Zm4.077-1.706-3.941-10.166-1.46.781c-1.58.822-3.087.206-4.545-.389-1.986-.812-4.04-1.651-7.003.38-.63.431-1.27.975-1.909 1.62-1.412 1.427-3.162 2.777-5.208 4.02 2.108 2.292 4.362 1.38 6.948.333 2.07-.839 4.21-1.704 6.177-.584l7.638 4.354c.322.183.597.417.822.687l2.48-1.036Zm6.32-.002L52.611 21.03c0-.11-.166-.248-.247-.3a.632.632 0 0 0-.562-.058l-2.872 1.114a.62.62 0 0 0-.345.331.618.618 0 0 0-.012.478l5.783 14.919a.62.62 0 0 0 .332.344.62.62 0 0 0 .478.013l2.872-1.114a.625.625 0 0 0 .357-.808Zm-7.261-13.695a.959.959 0 0 0-.957.957c0 .527.43.957.957.957a.958.958 0 0 0 0-1.914Z" fill="#6958BE"/></svg>