<svg width="50" height="51" fill="none" xmlns="http://www.w3.org/2000/svg"><rect y=".427" width="50" height="50" rx="25" fill="url(#a)"/><path fill-rule="evenodd" clip-rule="evenodd" d="M35.51 20.914c-.065-.005-.139-.005-.216-.005h-3.042c-2.491 0-4.622 1.961-4.622 4.518 0 2.556 2.132 4.517 4.622 4.517h3.042c.077 0 .15 0 .22-.005a2.114 2.114 0 0 0 1.981-1.96c.005-.073.005-.151.005-.224v-4.657c0-.072 0-.15-.005-.223a2.114 2.114 0 0 0-1.982-1.961m-3.527 5.717c.64 0 1.16-.54 1.16-1.204 0-.665-.52-1.205-1.16-1.205-.642 0-1.161.54-1.161 1.205s.519 1.204 1.161 1.204Z" fill="#fff"/><path fill-rule="evenodd" clip-rule="evenodd" d="M35.29 31.751a.266.266 0 0 1 .266.335c-.24.858-.625 1.59-1.24 2.205-.903.903-2.046 1.302-3.458 1.492-1.373.185-3.126.185-5.34.185h-2.544c-2.215 0-3.969 0-5.34-.185-1.413-.19-2.556-.59-3.458-1.491-.901-.902-1.301-2.046-1.492-3.457-.184-1.374-.184-3.127-.184-5.34v-.136c0-2.214 0-3.968.184-5.341.19-1.412.59-2.555 1.492-3.458.902-.9 2.045-1.3 3.457-1.491 1.373-.183 3.126-.183 5.34-.183h2.545c2.214 0 3.968 0 5.34.184 1.412.19 2.555.59 3.458 1.491.615.617 1 1.349 1.24 2.206a.265.265 0 0 1-.266.335h-3.04c-3.418 0-6.43 2.699-6.43 6.325 0 3.626 3.012 6.324 6.43 6.324h3.04ZM17.018 19.704a.903.903 0 1 0 0 1.808h4.818a.904.904 0 0 0 0-1.808h-4.818Z" fill="#fff"/><defs><linearGradient id="a" x1="7.986" y1=".246" x2="44.097" y2="50.246" gradientUnits="userSpaceOnUse"><stop stop-color="#034AFF"/><stop offset="1" stop-color="#034AFF" stop-opacity=".5"/></linearGradient></defs></svg>