<svg width="70" height="71" fill="none" xmlns="http://www.w3.org/2000/svg"><rect y=".76" width="70" height="70" rx="35" fill="#00C768"/><path d="M35 23.288c-4.05 0-7.333 3.258-7.333 7.275 0 2.427 1.301 4.395 3.143 5.716-5.125 1.693-8.905 6.496-8.905 11.953h26.19c0-5.457-3.78-10.26-8.904-11.953 1.84-1.321 3.142-3.289 3.142-5.716 0-4.017-3.283-7.275-7.333-7.275Zm-10.476 1.04c-3.564 0-6.286 2.72-6.286 6.235 0 2.124.999 4.04 2.62 5.197C16.347 37.24 13 41.38 13 46.153h6.973c.676-4.456 3.477-8.289 7.334-10.523-1.035-1.427-1.735-3.12-1.735-5.067 0-2.068.69-3.983 1.85-5.537a6.438 6.438 0 0 0-2.898-.698Zm20.952 0a6.436 6.436 0 0 0-2.897.698 9.235 9.235 0 0 1 1.85 5.537c0 1.946-.7 3.64-1.736 5.067 3.858 2.234 6.658 6.067 7.334 10.523H57c0-4.775-3.347-8.913-7.857-10.393 1.62-1.157 2.619-3.073 2.619-5.197 0-3.516-2.722-6.236-6.286-6.236Z" fill="#fff"/></svg>