<svg width="70" height="71" fill="none" xmlns="http://www.w3.org/2000/svg"><rect y=".76" width="70" height="70" rx="35" fill="#B141C9"/><path d="M50.831 18.11c-.977-1.187-2.862-3.351-4.538-4.12-2.654-1.256-5.028-.279-6.354 2.514-.629 1.327-.768 2.653-.489 3.77.35 1.187 1.187 2.165 2.583 2.793 1.676.768 3.84 1.606 5.656 1.047a.67.67 0 0 1 .629.14c.14.21.209.419.14.698-2.026 6.145-3.981 13.057-3.422 18.154 0 .28-.07.488-.28.628a.634.634 0 0 1-.698 0c-.07 0-4.259-2.514-8.03-.908.699.978 1.258 2.025 1.607 3.142.14.35-.07.698-.42.838-.348.14-.697-.07-.837-.419-1.187-3.7-4.678-6.563-9.007-7.261-5.935-.978-11.451 2.513-12.289 7.68-.349 2.514.42 5.028 2.165 7.123 1.745 2.094 4.329 3.56 7.192 3.98 4.328.698 8.518-.908 10.822-4.12.21-.28.628-.349.908-.14.28.21.35.63.14.908-.908 1.257-2.025 2.235-3.352 3.003 8.379.908 18.084-3.561 21.436-8.518.349-.559.558-1.257.558-2.025-.07-1.606 0-3.421 0-5.376.14-8.24.279-18.644-4.12-23.531Zm-7.052 2.863c-.14.21-.35.35-.629.35-.07 0-.209 0-.279-.07-.768-.35-1.257-.839-1.466-1.397-.28-.698-.14-1.467.349-2.444.14-.35.559-.489.908-.35.349.14.489.56.349.908-.28.629-.419 1.117-.28 1.467.07.14.21.419.839.698.209.07.348.489.209.838Zm-18.922 35.05h-.07c-2.444-.418-4.538-1.535-6.005-3.35-.209-.28-.209-.699.07-.908.28-.21.698-.21.908.07 1.257 1.536 3.072 2.513 5.167 2.862.35.07.628.42.558.768 0 .35-.279.559-.628.559Zm25.345-5.375c-1.885 2.164-5.376 3.91-8.867 4.328h-.07c-.35 0-.628-.209-.628-.558-.07-.35.21-.698.558-.768 3.212-.419 6.354-1.955 8.03-3.84.21-.28.628-.28.908-.07.279.28.348.628.069.908Zm.14-21.226c-.908 3.351-1.536 6.074-1.815 8.378-.07.35-.35.559-.629.559h-.07c-.349-.07-.628-.35-.558-.768.28-2.374.908-5.167 1.815-8.588.07-.35.489-.558.838-.489.349.21.558.558.419.908Zm.768-2.514v.07a.67.67 0 0 1-.629.488h-.209c-.35-.139-.558-.488-.419-.838.07-.349.489-.558.838-.488.28.07.488.419.419.768Z" fill="#fff"/><path d="M39.73 28.095c-1.955-2.444-5.516-2.792-7.96-.838-.28.21-.698.21-.908-.07-.21-.279-.21-.698.07-.907a5.515 5.515 0 0 0 2.025-3.84c.14-1.537-.28-3.003-1.257-4.12-.21-.28-.21-.698.07-.908.28-.28.698-.209.908.07.977 1.187 2.304 1.886 3.84 2.095.349.07.628.349.558.698-.07.35-.349.628-.698.558a6.268 6.268 0 0 1-2.304-.628c.21.768.28 1.606.14 2.374a6.263 6.263 0 0 1-.629 2.304c3.073-.768 5.865.698 7.122 2.374.21.28.14.698-.14.907-.209.21-.558.21-.837-.069Z" fill="#fff"/></svg>