<svg width="650" height="566" fill="none" xmlns="http://www.w3.org/2000/svg"><rect x=".181" y="-.676" width="170.48" height="172.663" rx="31.5" transform="matrix(-.50952 -.86046 .87142 -.49054 523.204 105.031)" stroke="url(#a)"/><rect y="-.698" width="171.575" height="171.575" rx="31.5" transform="matrix(-.716 -.6981 .716 -.6981 548.588 151.396)" stroke="url(#b)"/><rect width="18.287" height="18.692" rx="4" transform="matrix(-.265 -.96425 .96753 -.25277 463.223 23.283)" fill="#CED6EA"/><rect width="18.49" height="18.49" rx="4" transform="matrix(-.716 -.6981 .716 -.6981 47.24 494.52)" fill="#CED6EA"/><rect width="18.49" height="18.49" rx="4" transform="matrix(-.716 -.6981 .716 -.6981 619.057 94.436)" fill="#CED6EA"/><rect x="-.351" y=".609" width="169.674" height="173.455" rx="31.5" transform="matrix(.265 .96425 -.96753 .25277 19.795 381.265)" stroke="url(#c)"/><defs><linearGradient id="a" x1="-.259" y1=".262" x2="173.39" y2="171.729" gradientUnits="userSpaceOnUse"><stop stop-color="#CED6EA"/><stop offset=".568" stop-color="#CED6EA" stop-opacity="0"/></linearGradient><linearGradient id="b" x1="-.261" y1=".261" x2="172.314" y2="172.836" gradientUnits="userSpaceOnUse"><stop stop-color="#CED6EA"/><stop offset=".568" stop-color="#CED6EA" stop-opacity="0"/></linearGradient><linearGradient id="c" x1="-.258" y1=".264" x2="174.155" y2="170.897" gradientUnits="userSpaceOnUse"><stop stop-color="#CED6EA"/><stop offset=".568" stop-color="#CED6EA" stop-opacity="0"/></linearGradient></defs></svg>