<svg width="174" height="200" fill="none" xmlns="http://www.w3.org/2000/svg"><rect x="87.296" y="199.082" width="173.228" height="173.228" rx="31.5" transform="rotate(-120 87.296 199.082)" stroke="url(#a)"/><g clip-path="url(#b)" fill="#46A482"><path fill-rule="evenodd" clip-rule="evenodd" d="m127.104 65.12 5.561-5.562a2.117 2.117 0 0 0 0-3.037 2.118 2.118 0 0 0-3.037 0l-6.331 6.33a24.983 24.983 0 0 0-11.294-2.694c-4.107 0-7.957.984-11.379 2.695L94.25 56.52a2.118 2.118 0 0 0-3.038 0 2.118 2.118 0 0 0 0 3.037l5.604 5.604c-6.331 4.663-10.48 12.15-10.48 20.662h51.334c0-8.513-4.149-16.042-10.566-20.705Zm-23.657 12.148h-4.278v-4.277h4.278v4.278Zm21.39 0h-4.278v-4.277h4.278v4.278Z"/><path d="M75.64 90.102a6.408 6.408 0 0 0-6.416 6.417v29.946a6.409 6.409 0 0 0 6.416 6.417 6.409 6.409 0 0 0 6.417-6.417V96.519a6.408 6.408 0 0 0-6.416-6.417ZM148.365 90.102a6.409 6.409 0 0 0-6.417 6.417v29.946a6.41 6.41 0 0 0 6.417 6.417 6.409 6.409 0 0 0 6.417-6.417V96.519a6.408 6.408 0 0 0-6.417-6.417ZM90.613 137.16a4.29 4.29 0 0 1-4.278-4.278v-42.78h51.336v42.78a4.291 4.291 0 0 1-4.278 4.278h-4.278v14.972a6.409 6.409 0 0 1-6.417 6.417 6.408 6.408 0 0 1-6.417-6.417V137.16h-8.556v14.972a6.408 6.408 0 0 1-6.417 6.417 6.408 6.408 0 0 1-6.417-6.417V137.16h-4.278Z"/></g><defs><linearGradient id="a" x1="86.85" y1="200.028" x2="261.078" y2="374.256" gradientUnits="userSpaceOnUse"><stop stop-color="#8FC2CD"/><stop offset=".568" stop-color="#8FC2CD" stop-opacity="0"/></linearGradient><clipPath id="b"><path fill="#fff" transform="translate(60.668 55.879)" d="M0 0h102.67v102.67H0z"/></clipPath></defs></svg>