<svg width="40" height="40" fill="none" xmlns="http://www.w3.org/2000/svg"><path fill-rule="evenodd" clip-rule="evenodd" d="M20-.005c-11.046 0-20 8.954-20 20s8.954 20 20 20 20-8.954 20-20-8.954-20-20-20Zm1.628 26.314c-.197.208-.582.25-.582.25H19.77s-2.813.165-5.29-2.366c-2.703-2.763-5.09-8.243-5.09-8.243s-.137-.36.012-.533c.168-.195.626-.208.626-.208l3.048-.02s.287.047.492.195a.94.94 0 0 1 .266.352s.492 1.223 1.144 2.329c1.274 2.16 1.867 2.632 2.299 2.4.63-.336.441-3.053.441-3.053s.012-.985-.317-1.424c-.255-.34-.735-.44-.947-.467-.172-.023.11-.414.475-.59.55-.262 1.517-.278 2.662-.267.892.01 1.149.064 1.497.147.81.191.784.806.73 2.13-.017.397-.036.857-.036 1.388 0 .12-.003.247-.007.378-.019.678-.04 1.456.415 1.745.234.148.805.022 2.233-2.359.677-1.128 1.184-2.454 1.184-2.454s.112-.237.284-.338c.177-.104.414-.072.414-.072l3.208-.02s.964-.113 1.12.315c.163.447-.36 1.494-1.671 3.209-1.243 1.626-1.848 2.225-1.793 2.755.04.387.434.737 1.189 1.424 1.575 1.436 1.997 2.191 2.099 2.373l.019.033c.706 1.15-.784 1.24-.784 1.24l-2.85.04s-.61.118-1.416-.424c-.422-.285-.834-.749-1.227-1.19-.6-.676-1.154-1.3-1.627-1.152-.794.248-.77 1.927-.77 1.927s.006.36-.174.55Z" fill="#202940"/></svg>