<svg width="78" height="78" fill="none" xmlns="http://www.w3.org/2000/svg"><g filter="url(#a)"><rect x="4" width="70" height="70" rx="35" fill="#fff"/><path d="M52.852 19.556c-.855-1.039-2.505-2.932-3.971-3.605-2.322-1.1-4.399-.244-5.56 2.2-.55 1.16-.671 2.321-.427 3.299.305 1.038 1.038 1.894 2.26 2.444 1.466.671 3.36 1.405 4.95.916a.586.586 0 0 1 .549.122c.122.183.183.367.122.61-1.772 5.377-3.483 11.425-2.993 15.885 0 .245-.061.428-.245.55a.555.555 0 0 1-.61 0c-.062 0-3.728-2.2-7.027-.794.611.855 1.1 1.772 1.406 2.749.122.305-.061.61-.367.733-.306.122-.611-.06-.733-.366-1.039-3.238-4.094-5.743-7.882-6.354-5.193-.856-10.02 2.2-10.752 6.72-.305 2.2.367 4.4 1.894 6.232 1.527 1.833 3.788 3.116 6.293 3.483 3.788.61 7.453-.794 9.47-3.605a.579.579 0 0 1 .794-.122c.244.183.305.55.122.795a9.287 9.287 0 0 1-2.933 2.627c7.332.794 15.824-3.116 18.757-7.454.305-.488.488-1.1.488-1.772-.06-1.405 0-2.993 0-4.704.122-7.21.244-16.313-3.605-20.59v.001Zm-6.17 2.505a.642.642 0 0 1-.55.306c-.061 0-.183 0-.245-.062-.672-.305-1.1-.733-1.283-1.221-.244-.611-.122-1.284.306-2.139.122-.305.489-.428.794-.305.306.122.428.488.306.794-.245.55-.367.977-.245 1.283.061.122.183.367.733.61.184.062.306.428.184.734Zm-16.557 30.67h-.061c-2.139-.367-3.971-1.345-5.254-2.933-.183-.244-.183-.61.06-.794.245-.183.612-.183.795.06 1.1 1.345 2.688 2.2 4.521 2.506.306.06.55.366.489.672 0 .306-.245.489-.55.489Zm22.177-4.705c-1.65 1.894-4.705 3.422-7.759 3.788h-.061c-.306 0-.55-.183-.55-.489-.06-.305.183-.61.489-.671 2.81-.367 5.56-1.711 7.026-3.36.183-.245.55-.245.794-.061.244.244.305.549.06.793Zm.122-18.572c-.794 2.932-1.344 5.315-1.588 7.331-.061.306-.306.489-.55.489h-.061c-.306-.061-.55-.306-.489-.672.245-2.077.795-4.521 1.589-7.514.06-.306.427-.49.733-.428.305.183.488.488.366.794Zm.672-2.2v.061a.587.587 0 0 1-.55.428h-.183c-.306-.122-.489-.428-.367-.733.061-.306.428-.489.734-.428.244.061.427.367.366.672Z" fill="#034AFF"/><path d="M43.139 28.293c-1.711-2.139-4.827-2.444-6.965-.733-.245.183-.61.183-.794-.061-.184-.245-.184-.611.06-.795a4.825 4.825 0 0 0 1.772-3.36c.122-1.344-.244-2.627-1.1-3.605-.182-.244-.182-.61.062-.794a.522.522 0 0 1 .794.061c.856 1.039 2.016 1.65 3.36 1.833.306.061.55.306.489.61-.061.306-.306.55-.61.49a5.483 5.483 0 0 1-2.017-.55c.183.672.245 1.405.122 2.077a5.486 5.486 0 0 1-.55 2.016c2.689-.672 5.132.61 6.232 2.077a.58.58 0 0 1-.122.794c-.183.184-.489.184-.733-.06Z" fill="#034AFF"/></g><defs><filter id="a" x="0" y="0" width="78" height="78" filterUnits="userSpaceOnUse" color-interpolation-filters="sRGB"><feFlood flood-opacity="0" result="BackgroundImageFix"/><feColorMatrix in="SourceAlpha" values="0 0 0 0 0 0 0 0 0 0 0 0 0 0 0 0 0 0 127 0" result="hardAlpha"/><feOffset dy="4"/><feGaussianBlur stdDeviation="2"/><feComposite in2="hardAlpha" operator="out"/><feColorMatrix values="0 0 0 0 0 0 0 0 0 0 0 0 0 0 0 0 0 0 0.25 0"/><feBlend in2="BackgroundImageFix" result="effect1_dropShadow_2164_207"/><feBlend in="SourceGraphic" in2="effect1_dropShadow_2164_207" result="shape"/></filter></defs></svg>