<svg width="197" height="197" fill="none" xmlns="http://www.w3.org/2000/svg"><path d="M183.033 122.075h-50.95c-9.064-8.068-35.391-15.141-40.105-16.372v-6.576c4.873-3.85 9.221-9.745 12.469-17.21.184.261.472.445.812.524.261.053.497.078.759.078 2.881 0 5.684-3.222 6.706-7.911.681-3.17.341-6.21-.942-8.146-.681-1.048-1.625-1.703-2.698-1.912-.314-.053-.628 0-.891.158 1.755-13.727 2.462-25.646-4.296-28.082-5.632-12.705-17.656-18.153-33.085-14.932-.995.208-24.65 5.395-22.87 30.963.262 3.798.681 7.57 1.231 11.29a1.306 1.306 0 0 0-1.389-.419c-1.047.314-1.911 1.048-2.489 2.148-1.074 2.042-1.125 5.108-.13 8.199 1.414 4.375 4.322 7.282 7.098 7.282.367 0 .734-.053 1.1-.158.079-.026.131-.078.184-.105C56.376 87.39 60.33 93.756 65.23 98.21v7.361c-8.513 1.965-40.813 9.85-47.912 18.364-10.137 12.129-6.995 49.512-6.837 51.109.053.68.629 1.205 1.31 1.205h68.503c.13 0 .236-.026.341-.078h91.921c1.911 0 3.536-1.309 3.981-3.17l10.479-45.922a4.015 4.015 0 0 0-.786-3.458c-.81-.97-1.963-1.545-3.194-1.545l-.003-.001ZM82.81 163.122c4.872-11.999 7.884-22.842 9.22-33.06 3.668-6.679 5.135-14.669 5.737-20.039 1.467.419 3.092.917 4.846 1.467.026.025.026.078.053.105 2.697 3.484 5.553 9.195 8.068 16.216l-8.618 1.047a1.288 1.288 0 0 0-.943.603 1.265 1.265 0 0 0-.13 1.1l3.589 11.055c-4.034 8.042-7.938 14.905-12.182 21.48h-9.64v.026Zm-4.481 0c-.367 0-.708.052-1.048.158-4.192-10.19-7.02-19.464-8.645-28.187.392.444.786.891 1.205 1.309.236.236.576.366.917.366h.105c.367-.025.734-.209.943-.524l6.784-8.985 6.812 8.986c.236.314.576.497.942.525h.105c.342 0 .681-.131.917-.367.445-.445.812-.97 1.231-1.442-1.597 8.749-4.453 18.023-8.618 28.188h-1.65v-.027Zm-6.287 10.479c-6.785-9.116-13.49-20.119-19.411-31.933l3.589-11.054c.13-.367.078-.786-.13-1.1a1.283 1.283 0 0 0-.943-.603l-8.618-1.048c2.384-6.523 5.659-12.915 8.54-16.582.13-.158.183-.341.236-.525a254.76 254.76 0 0 1 4.164-1.075c.525 4.69 1.94 13.23 5.737 20.303 1.389 10.662 4.637 22.084 9.902 34.841-.498.681-.812 1.519-.812 2.409v4.873c0 .524.105 1.048.289 1.519h-2.543v-.025Zm-6.496-65.411c1.572 6.549 5.345 12.313 11.265 17.106l-6.13 8.12c-1.1-1.258-2.095-2.75-3.012-4.4a1.19 1.19 0 0 0-.236-.445c-2.698-5.082-4.584-11.841-5.395-19.542 1.177-.289 2.33-.576 3.508-.839Zm26.117.158c.786.209 2.017.55 3.562.97-.786 7.545-2.672 14.171-5.344 19.202-.131.158-.236.341-.314.55-.917 1.625-1.912 3.092-3.012 4.348l-6.13-8.12c5.893-4.742 9.64-10.454 11.238-16.95Zm15.534 34.002c.158-.314.183-.655.078-.995L104 131.296l8.671-1.075c.392-.053.733-.261.942-.603.209-.341.261-.759.131-1.125-1.336-3.878-3.851-10.505-7.099-15.691 7.465 2.514 15.849 5.762 21.14 9.246h-7.309c-1.887 0-3.563 1.336-3.982 3.17l-8.645 37.878H95.536c4.037-6.313 7.784-12.966 11.661-20.746Zm.708-75.598c.183.183.392.314.628.366.367.079.708.342 1.022.786.864 1.31 1.1 3.72.576 6.157-.787 3.667-2.96 6.078-4.376 5.815a1.466 1.466 0 0 0-.472 0 65.769 65.769 0 0 0 1.337-3.642c0-.026 0-.078.025-.105 0-.053.026-.078.053-.131.209-1.676.445-3.379.681-5.056.159-1.389.342-2.803.526-4.19Zm-36.57-42.49c14.513-3.04 25.305 1.912 30.388 13.936.158.367.472.655.864.759 6.235 1.625 4.061 17.578 2.148 31.644-.158 1.258-.341 2.514-.498 3.745a3.427 3.427 0 0 1-2.253-2.672c-.707-4.27-1.231-8.357.053-11.03.681-1.44.341-3.194-.864-4.478-2.043-2.2-2.776-5.712-2.2-10.766a1.333 1.333 0 0 0-.656-1.283c-.209-.106-.42-.184-.655-.184-.289 0-.55.105-.786.262-11.316 8.67-23.865 10.53-37.278 5.553-.55-.208-1.152-.025-1.519.445-2.62 3.51-4.584 11.316-5.737 17.106a150.691 150.691 0 0 1-1.808-14.827c-1.623-23.312 19.885-28.027 20.801-28.21Zm-23.68 48.827c-.76-2.358-.787-4.795-.053-6.182.261-.472.55-.759.916-.864.42-.13.708-.445.839-.839a151.68 151.68 0 0 0 1.781 9.483c0 .025.026.025.026.052v.053c.392 1.23.864 2.462 1.361 3.72-1.387.314-3.718-1.887-4.87-5.423Zm6.128 1.153c.342-2.175 2.542-16.137 5.868-21.665 13.046 4.559 25.305 3.012 36.517-4.61-.106 4.4.916 7.675 3.091 10.006.367.392.681 1.022.42 1.572-1.598 3.353-1.048 7.86-.262 12.575.392 2.33 2.043 4.112 4.218 4.767-4.192 11.71-12.915 24.676-24.677 24.676-11.893-.025-20.957-14.668-25.175-27.322Zm25.148 29.915c3.562 0 7.099-1.1 10.427-3.17v5.712c-1.31 6.392-4.926 11.998-10.74 16.66-5.843-4.689-9.483-10.321-10.766-16.738v-6.313c3.353 2.382 7.045 3.849 11.08 3.849Zm-59.596 21.455c3.903-4.662 17.683-9.771 32.141-13.832-2.855 4.323-5.842 10.558-7.962 16.739-.131.367-.079.786.13 1.126.21.341.55.55.943.603l8.67 1.074-3.274 10.06c-.106.314-.079.681.078.995 5.736 11.474 12.181 22.214 18.755 31.252h-28.76l1.807-18.992a1.296 1.296 0 0 0-1.178-1.414c-.733-.053-1.362.472-1.414 1.178l-1.834 19.228H12.996c-.472-6.549-2.148-37.878 6.34-48.015l-.001-.002Zm154.633 46.784a1.456 1.456 0 0 1-1.414 1.126l-94.225.001a1.454 1.454 0 0 1-1.441-1.441v-4.873c0-.811.655-1.467 1.44-1.467h30.545c.602 0 1.153-.419 1.283-1.022l8.88-38.9c.159-.628.76-1.125 1.416-1.125h62.582c.445 0 .839.209 1.1.55.289.341.392.811.289 1.231l-10.455 45.92Z" fill="#F96C49"/><path d="M148.062 143.268c-3.17 0-6.051 2.489-6.576 5.632-.261 1.572.158 3.143 1.126 4.295.97 1.153 2.384 1.781 3.982 1.781 3.117 0 6.078-2.541 6.575-5.658.262-1.625-.13-3.143-1.125-4.296-.968-1.126-2.383-1.754-3.982-1.754Zm2.516 5.632c-.314 1.859-2.122 3.458-3.981 3.458-.812 0-1.52-.314-1.965-.839-.472-.575-.681-1.336-.524-2.174.314-1.912 2.095-3.459 3.981-3.459.812 0 1.52.289 1.992.839.444.577.628 1.336.497 2.175ZM183.583 60.543h-51a3.51 3.51 0 0 0-3.51 3.51v34.813a3.51 3.51 0 0 0 3.51 3.51h4.978l5.448 9.037a2.395 2.395 0 0 0 2.07 1.179c.864 0 1.624-.445 2.069-1.153l5.449-9.038h30.99a3.509 3.509 0 0 0 3.509-3.51V64.054a3.51 3.51 0 0 0-3.511-3.51h-.002Zm.892 38.325a.884.884 0 0 1-.892.891l-31.722-.001c-.472 0-.891.236-1.125.628l-5.659 9.379-5.659-9.379a1.298 1.298 0 0 0-1.126-.628h-5.711a.883.883 0 0 1-.891-.892V64.053c0-.498.392-.892.891-.892h51.001c.497 0 .891.393.891.892l.002 34.815Z" fill="#F96C49"/><path d="M150.628 76.68c-.472-.55-1.283-.655-1.833-.183l-6.392 5.213c-.315.235-.472.628-.472 1.022 0 .392.183.758.472 1.022l6.392 5.212c.236.209.524.288.838.288.393 0 .759-.157 1.022-.472.445-.55.367-1.388-.183-1.833l-5.134-4.192 5.134-4.192c.523-.496.601-1.334.156-1.885ZM167.42 76.496c-.55-.472-1.389-.367-1.834.183-.445.55-.366 1.389.184 1.834l5.134 4.192-5.134 4.192c-.55.445-.656 1.283-.184 1.833.262.314.629.472 1.022.472.289 0 .576-.105.839-.288l6.392-5.213c.314-.236.472-.628.472-1.022 0-.392-.183-.759-.472-1.022l-6.419-5.161ZM163.36 71.44c-.655-.289-1.441 0-1.728.655l-9.457 21.454a1.303 1.303 0 0 0 1.205 1.834c.498 0 .995-.289 1.206-.786l9.456-21.454a1.323 1.323 0 0 0-.682-1.703Z" fill="#F96C49"/></svg>