<svg width="134" height="141" fill="none" xmlns="http://www.w3.org/2000/svg"><path d="M111.775 88.297c.984 0 1.915.22 2.756.605a8.024 8.024 0 0 0-.252-1.267c-1.596-5.506-3.685-9.07-5.79-11.42-3.713-4.16-7.451-4.488-8.58-4.751-3.467-.81-7.662-.467-9.903-1.165-.266 2.2-6.652 9.421-10.836 13.96l-1.816-7c1.364-.806 1.661-2.58 1.661-4.053h-6.88c0 1.462.296 3.22 1.632 4.034l-1.785 7.014C67.793 79.722 61.407 72.496 61.146 70.3c-2.24.699-6.436.358-9.906 1.164-1.16.272-5.122.624-8.954 5.193-1.972 2.35-3.911 5.8-5.414 10.975a8.08 8.08 0 0 0-.242 1.19 6.613 6.613 0 0 1 2.59-.525h72.555Z" fill="#0F98E7"/><path d="m48.481 22.182 1.828.791-.154 1.227c-.701.12-1.235.73-1.235 1.463 0 .661.43 1.222 1.03 1.411l-1.11 15.548c-.046.648.083 1.683.29 2.3l.9 2.704c.207.618.54.618.746 0l.902-2.703c.207-.616.336-1.652.29-2.3L50.86 27.076a1.482 1.482 0 0 0-.21-2.875l-.141-1.141 4.22 1.827 2.068.894v7.98l.005.004a38.302 38.302 0 0 0-.465 3.528 19.077 19.077 0 0 0-.569 4.562h.037a.113.113 0 0 1-.005.036c-.025.004-.042.005-.068.007-1.36.236-1.98 3.144-1.384 6.492.548 3.076 1.931 5.451 3.216 5.632 1.627 4.38 4.205 8.64 7.394 11.745 1.8 1.765 3.8 3.16 5.93 4.01 1.466.575 2.995.901 4.57.901 1.57 0 3.098-.32 4.564-.902 2.205-.88 4.271-2.34 6.122-4.19 3.111-3.103 5.63-7.297 7.22-11.6 1.23-.36 2.515-2.66 3.04-5.6.566-3.188.032-5.968-1.2-6.429.046-.78.074-1.569.07-2.373-.005-2.447-.331-4.706-.914-6.773V25.78l2.068-.894 6.246-2.706c1.635-.708 1.635-1.862 0-2.57L78.548 9.168c-1.632-.709-4.304-.709-5.939 0L48.481 19.61c-1.632.71-1.632 1.866 0 2.571Zm9.388 23.23c.133-.393.31-.697.538-.861a.794.794 0 0 1 .313-.135c.252-.042.517.056.777.263h.001a.51.51 0 0 1 .004-.06c.05-.487.436-3.103 2.068-5.179.752-.955 1.777-1.788 3.147-2.252l7.892 3.417c1.634.709 4.306.709 5.938 0l6.446-2.789 1.626-.704h.615c.277.078.526.198.77.327.065.068.127.15.19.223.558.637 1.104 1.451 1.623 2.508.576 1.176 1.117 2.641 1.594 4.46v.042c.007 0 .01 0 .014-.002v.003l.017-.016a1.31 1.31 0 0 1 .38-.212c.013-.006.026-.005.038-.007.045-.007.089-.01.13-.014l.032-.001c.056-.004.123-.024.172-.014h.005a.84.84 0 0 1 .183.055.867.867 0 0 1 .21.143c.367.334.603 1.047.673 1.954.005.072.014.14.02.214.003.079 0 .165 0 .248.004.091.006.18.005.273v.001c-.01.476-.056.989-.155 1.52-.024.143-.06.262-.093.4-.314 1.437-.891 2.618-1.505 3.141-.138.12-.287.204-.426.25a.806.806 0 0 1-.391.04.755.755 0 0 1-.399-.212c-1.477 4.595-4.294 9.17-7.844 11.953-.528.406-1.068.78-1.621 1.106-1.687.99-3.502 1.575-5.395 1.575-2.462 0-4.799-.976-6.88-2.57-3.616-2.77-6.488-7.405-7.984-12.062a.799.799 0 0 1-.403.21c-.306.056-.631-.101-.94-.405a3.412 3.412 0 0 1-.233-.267c-.533-.686-1-1.822-1.236-3.155-.02-.099-.03-.195-.042-.297.005-1.056.056-2.09.126-3.111ZM108.389 139.622H42.61a1.37 1.37 0 1 0 0 2.741h65.779a1.37 1.37 0 1 0 0-2.741ZM114.535 90.727a6.605 6.605 0 0 0-2.755-.604H39.226a6.673 6.673 0 0 0-6.663 6.665v.154l.026.155 6.022 34.927a6.67 6.67 0 0 0 6.66 6.496h60.46a6.671 6.671 0 0 0 6.662-6.496l6.021-34.927.026-.154v-.155a6.674 6.674 0 0 0-3.905-6.06Zm-8.804 45.967H45.273a4.836 4.836 0 0 1-4.837-4.836l-6.048-35.07a4.837 4.837 0 0 1 4.836-4.837h72.554a4.836 4.836 0 0 1 4.836 4.838l-6.045 35.069a4.838 4.838 0 0 1-4.837 4.836h-.001Z" fill="#0F98E7"/><path d="M78.366 113.719a2.869 2.869 0 1 1-5.738-.002 2.869 2.869 0 0 1 5.738.002Z" fill="#0F98E7"/></svg>