<svg width="26" height="25" viewBox="0 0 26 25" fill="none" xmlns="http://www.w3.org/2000/svg">
<path d="M25.4995 10.5962C25.4995 4.85228 19.8922 0.179688 12.9998 0.179688C6.10732 0.179688 0.5 4.85212 0.5 10.5962C0.5 10.6578 0.504135 10.7177 0.509097 10.8312C0.504342 10.8912 0.5 10.9512 0.5 11.013C0.5 13.5387 1.51746 15.9687 3.3766 17.9128L0.786559 24.8196L10.8008 21.6763C11.5343 21.7887 12.2727 21.8462 13.0002 21.8462C19.8927 21.8462 25.5 16.9862 25.5 11.0132C25.5 10.9507 25.4959 10.8897 25.4901 10.7789C25.4959 10.7181 25.5 10.6582 25.5 10.5964L25.4995 10.5962ZM8.00007 11.8462H6.33343V10.1796H8.00007V11.8462ZM13.8334 11.8462H12.1668V10.1796H13.8334V11.8462ZM19.6667 11.8462H18.0001V10.1796H19.6667V11.8462Z" fill="white"/>
</svg>
