<svg width="37" height="37" viewBox="0 0 37 37" fill="none" xmlns="http://www.w3.org/2000/svg">
<rect width="37" height="37" rx="18.5" fill="#003CD2"/>
<path fill-rule="evenodd" clip-rule="evenodd" d="M17.7969 25.2297H19.1308C19.1308 25.2297 19.5309 25.1631 19.731 24.963C19.9311 24.7629 19.9311 24.3627 19.9311 24.3627C19.9311 24.3627 19.9311 22.6287 20.7314 22.3619C21.5317 22.0952 22.5988 24.096 23.6659 24.8296C24.4662 25.4298 25.0665 25.2964 25.0665 25.2964L28.001 25.2297C28.001 25.2297 29.5349 25.1631 28.8013 23.8959C28.7346 23.8292 28.4011 23.0289 26.6004 21.3615C24.733 19.6275 24.9998 19.961 27.2007 16.9598C28.5345 15.1591 29.0681 14.092 28.9347 13.5584C28.8013 13.0916 27.8009 13.225 27.8009 13.225H24.4662C24.4662 13.225 24.1995 13.1583 24.0661 13.2916C23.866 13.425 23.7993 13.6251 23.7993 13.6251C23.7993 13.6251 23.2658 15.0257 22.5988 16.2262C21.1316 18.6938 20.5313 18.8272 20.3312 18.6938C19.7977 18.3603 19.9311 17.2265 19.9311 16.4929C19.9311 14.092 20.3312 13.0916 19.1975 12.8248C18.864 12.7581 18.5972 12.6914 17.6635 12.6914C16.463 12.6914 15.4626 12.6914 14.9291 12.9582C14.5289 13.1583 14.2622 13.5584 14.4622 13.5584C14.6623 13.5584 15.1959 13.6918 15.4626 14.0253C15.7294 14.6255 15.7294 15.6259 15.7294 15.6259C15.7294 15.6259 15.9295 18.4937 15.2626 18.8272C14.7957 19.094 14.1955 18.5604 12.8616 16.2928C12.1947 15.1591 11.6611 13.8252 11.6611 13.8252C11.6611 13.8252 11.5944 13.5584 11.3943 13.425C11.1943 13.2916 10.8608 13.225 10.8608 13.225H7.72622C7.72622 13.225 7.25936 13.225 7.05928 13.425C6.9259 13.6251 7.05928 13.9586 7.05928 13.9586C7.05928 13.9586 9.52693 19.6942 12.3281 22.6287C14.9291 25.4298 17.7969 25.2297 17.7969 25.2297Z" fill="white"/>
</svg>
