<svg width="37" height="37" viewBox="0 0 37 37" fill="none" xmlns="http://www.w3.org/2000/svg">
<rect width="37" height="37" rx="18.5" fill="#23D114"/>
<path d="M10.25 26.7502L11.7625 23.2668C10.6054 21.6242 10.0874 19.6158 10.306 17.6184C10.5245 15.6211 11.4644 13.7721 12.9493 12.4185C14.4342 11.065 16.3621 10.2999 18.3711 10.2667C20.3801 10.2336 22.3321 10.9348 23.8608 12.2387C25.3896 13.5427 26.3899 15.3596 26.6741 17.3487C26.9583 19.3378 26.5068 21.3622 25.4044 23.042C24.302 24.7219 22.6245 25.9417 20.6866 26.4725C18.7487 27.0033 16.6837 26.8087 14.8792 25.9252L10.25 26.7502Z" stroke="white" stroke-width="2" stroke-linecap="round" stroke-linejoin="round"/>
<path d="M15.75 16.667C15.75 16.7885 15.7983 16.9051 15.8842 16.9911C15.9702 17.077 16.0868 17.1253 16.2083 17.1253C16.3299 17.1253 16.4465 17.077 16.5324 16.9911C16.6184 16.9051 16.6667 16.7885 16.6667 16.667V15.7503C16.6667 15.6288 16.6184 15.5122 16.5324 15.4262C16.4465 15.3403 16.3299 15.292 16.2083 15.292C16.0868 15.292 15.9702 15.3403 15.8842 15.4262C15.7983 15.5122 15.75 15.6288 15.75 15.7503V16.667ZM15.75 16.667C15.75 17.8826 16.2329 19.0484 17.0924 19.9079C17.952 20.7674 19.1178 21.2503 20.3333 21.2503M20.3333 21.2503H21.25C21.3716 21.2503 21.4881 21.202 21.5741 21.1161C21.66 21.0301 21.7083 20.9135 21.7083 20.792C21.7083 20.6704 21.66 20.5539 21.5741 20.4679C21.4881 20.3819 21.3716 20.3337 21.25 20.3337H20.3333C20.2118 20.3337 20.0952 20.3819 20.0092 20.4679C19.9233 20.5539 19.875 20.6704 19.875 20.792C19.875 20.9135 19.9233 21.0301 20.0092 21.1161C20.0952 21.202 20.2118 21.2503 20.3333 21.2503Z" stroke="white" stroke-width="2" stroke-linecap="round" stroke-linejoin="round"/>
</svg>
