<svg width="641" height="491" fill="none" xmlns="http://www.w3.org/2000/svg"><path d="M41.85 191.108c-1.922-66.815 49.274-122.83 115.945-127.714 49.748-3.645 106.525-7.533 152.278-9.931 45.753-2.398 102.626-4.466 152.482-6.04 66.816-2.112 123.587 48.244 128.66 114.894 1.822 23.941 3.487 48.148 4.582 69.043 1.095 20.896 1.969 45.144 2.66 69.144 1.922 66.815-49.274 122.83-115.945 127.714-49.748 3.645-106.526 7.533-152.278 9.931-45.753 2.398-102.626 4.465-152.483 6.041-66.816 2.111-123.586-48.245-128.659-114.895-1.822-23.941-3.487-48.148-4.582-69.043-1.096-20.896-1.97-45.144-2.66-69.144Z" stroke="#CED6EA"/><path d="M17.12 200.549c-4.523-73.731 48.694-137.723 121.817-148.28 52.007-7.509 110.968-15.482 158.752-20.504 47.784-5.022 107.114-9.482 159.546-12.95 73.719-4.878 139.078 46.653 149.983 119.712 3.912 26.211 7.518 52.785 9.932 75.757 2.414 22.972 4.413 49.716 6.036 76.167 4.523 73.73-48.694 137.723-121.816 148.28-52.008 7.509-110.969 15.481-158.752 20.504-47.784 5.022-107.114 9.482-159.546 12.951-73.72 4.876-139.079-46.654-149.984-119.713-3.912-26.211-7.517-52.785-9.931-75.757-2.415-22.973-4.414-49.716-6.037-76.167Z" stroke="#CED6EA"/><rect x="28.353" y="104.139" width="22" height="22" rx="8" transform="rotate(-120 28.353 104.139)" fill="#CED6EA"/><rect x="621.227" y="404.188" width="22" height="22" rx="8" transform="rotate(-150 621.227 404.188)" fill="#CED6EA"/><rect x="588.73" y="174.787" width="14.666" height="14.666" rx="4" transform="rotate(-120 588.73 174.787)" fill="#CED6EA"/><rect x="109.611" y="452.932" width="14.666" height="14.666" rx="4" transform="rotate(-135 109.611 452.932)" fill="#CED6EA"/></svg>