<svg width="78" height="79" fill="none" xmlns="http://www.w3.org/2000/svg"><g filter="url(#a)"><rect x="4" y=".5" width="70" height="70" rx="35" fill="#fff"/><path d="M57.602 46.145 36.76 28.177c.499-2.654 1.158-6.937-.895-8.99a8.457 8.457 0 0 0-7.926-2.254l3.613 3.613-1.026 3.828-.305 1.14-1.14.305-3.827 1.025-3.614-3.614a8.459 8.459 0 0 0 2.255 7.927c2.053 2.053 6.337 1.394 8.99.895l17.968 20.842a4.772 4.772 0 0 0 6.75-6.749H57.6Zm-2.075 4.673a2.733 2.733 0 0 1-3.869.002 2.738 2.738 0 0 1 0-3.87 2.735 2.735 0 0 1 3.869 3.868Z" fill="#034AFF"/><path d="m34.696 36.182-3.484 3.484-1.605-1.606a2.268 2.268 0 0 0-3.209 0l-.43.43a2.266 2.266 0 0 0-.633 1.978 2.22 2.22 0 0 0-1.567.653l-3.025 3.025a5.944 5.944 0 1 0 8.405 8.405l3.024-3.026c.417-.415.651-.979.653-1.567a2.265 2.265 0 0 0 1.977-.633l.43-.43a2.268 2.268 0 0 0 0-3.208l-1.604-1.606 3.305-3.305-2.237-2.594ZM43.485 32.224l5.26-5.26.306.307a1.559 1.559 0 0 0 2.355-.172l3.704-4.985a1.56 1.56 0 0 0-.15-2.034l-1.747-1.747a1.562 1.562 0 0 0-2.034-.15l-4.985 3.704a1.558 1.558 0 0 0-.172 2.355l.308.307-5.44 5.44 2.595 2.235Z" fill="#034AFF"/></g><defs><filter id="a" x="0" y=".5" width="78" height="78" filterUnits="userSpaceOnUse" color-interpolation-filters="sRGB"><feFlood flood-opacity="0" result="BackgroundImageFix"/><feColorMatrix in="SourceAlpha" values="0 0 0 0 0 0 0 0 0 0 0 0 0 0 0 0 0 0 127 0" result="hardAlpha"/><feOffset dy="4"/><feGaussianBlur stdDeviation="2"/><feComposite in2="hardAlpha" operator="out"/><feColorMatrix values="0 0 0 0 0 0 0 0 0 0 0 0 0 0 0 0 0 0 0.25 0"/><feBlend in2="BackgroundImageFix" result="effect1_dropShadow_2164_215"/><feBlend in="SourceGraphic" in2="effect1_dropShadow_2164_215" result="shape"/></filter></defs></svg>