<svg width="41" height="40" fill="none" xmlns="http://www.w3.org/2000/svg"><rect x=".5" width="40" height="40" rx="20" fill="#003CD2"/><path fill-rule="evenodd" clip-rule="evenodd" d="M19.77 27.58h1.515s.455-.077.682-.304c.227-.227.227-.682.227-.682s0-1.97.91-2.274c.91-.303 2.122 1.97 3.335 2.804.909.683 1.591.531 1.591.531l3.335-.076s1.743-.076.91-1.516c-.077-.075-.455-.985-2.502-2.88-2.122-1.97-1.819-1.591.682-5.002 1.516-2.046 2.122-3.258 1.97-3.865-.15-.53-1.288-.379-1.288-.379h-3.789s-.303-.075-.455.076c-.227.152-.303.38-.303.38s-.606 1.59-1.364 2.955c-1.667 2.804-2.35 2.956-2.577 2.804-.606-.379-.455-1.667-.455-2.501 0-2.728.455-3.865-.833-4.168-.38-.076-.682-.152-1.743-.152-1.364 0-2.501 0-3.108.303-.454.228-.758.682-.53.682.227 0 .834.152 1.137.53.303.683.303 1.82.303 1.82s.227 3.259-.53 3.637c-.531.304-1.213-.303-2.73-2.88-.757-1.288-1.363-2.804-1.363-2.804s-.076-.303-.303-.454c-.228-.152-.607-.228-.607-.228H8.325s-.53 0-.758.228c-.151.227 0 .606 0 .606s2.804 6.518 5.988 9.852c2.955 3.183 6.214 2.956 6.214 2.956Z" fill="#fff"/></svg>