<svg width="173" height="198" fill="none" xmlns="http://www.w3.org/2000/svg"><rect x="87.297" y="197.317" width="173.228" height="173.228" rx="31.5" transform="rotate(-120 87.297 197.317)" stroke="url(#a)"/><path d="M120.096 119.8a14.924 14.924 0 0 0 13.504 8.312c5.672 0 9.296-2.836 9.296-6.752 0-4.692-3.724-6.356-9.964-9.088l-3.424-1.468c-9.876-4.208-16.44-9.48-16.44-20.624 0-10.268 7.824-18.08 20.048-18.08A20.24 20.24 0 0 1 152.6 83.08l-10.66 6.844a9.315 9.315 0 0 0-8.8-5.868 5.958 5.958 0 0 0-6.552 5.868c0 4.108 2.544 5.768 8.4 8.312l3.424 1.464c11.632 4.988 18.196 10.072 18.196 21.504 0 12.324-9.68 19.076-22.684 19.076a26.326 26.326 0 0 1-24.944-14l11.116-6.48ZM71.744 121c2.152 3.816 4.108 7.04 8.8 7.04 4.496 0 7.336-1.76 7.336-8.6V72.9h13.688v46.732c0 14.172-8.312 20.624-20.44 20.624A21.24 21.24 0 0 1 60.6 127.752L71.744 121Z" fill="#545337"/><defs><linearGradient id="a" x1="86.851" y1="198.263" x2="261.079" y2="372.491" gradientUnits="userSpaceOnUse"><stop stop-color="#8FC2CD"/><stop offset=".568" stop-color="#8FC2CD" stop-opacity="0"/></linearGradient></defs></svg>