<svg width="174" height="200" fill="none" xmlns="http://www.w3.org/2000/svg"><rect x="87.296" y="199.082" width="173.228" height="173.228" rx="31.5" transform="rotate(-120 87.296 199.082)" stroke="url(#a)"/><path d="M102.366 89.724s-21.862-.317-21.862 5.978c0 3.003 6.092 4.672 14.51 5.281-3.413.149-8.214 2.832-8.214 5.455 0 5.429 25.743 9.61 44.801 1.682l-6.593-4.297c-12.863 4.365-36.505 2.984-29.758-2.819 10.016.695 23.307-.116 34.341-2.297 0 0 4.647-2.628 6.102-4.04-13.404 2.772-43.181 1.968-43.181-.442 0-2.22 9.854-4.501 9.854-4.501Zm44.258 0c-2.404-.104-5.035.693-7.301 2.369 4.73-1.06 8.726 1.948 8.726 5.424 0 7.812-10.839 15.217-10.839 15.217s16.797-2.001 16.797-14.848c0-5.306-3.378-7.988-7.383-8.162Zm-46.462 22.785c-4.705 0-7.753 3.266-7.753 5.66 0 7.408 28.072 7.667 39.202.133l-7.075-4.563c-8.311 3.943-29.178 4.482-24.374-1.23Zm-20.294 12.346c-6.765-.218-9.864 3.33-9.864 6.224 0 15.394 73.502 14.648 73.502-1.076 0-2.615-2.847-3.857-3.876-4.451 6.001 15.037-60.849 14.005-60.849 5.127 0-2.021 3.535-4.077 8.04-3.137 0 0-1.646-1.96-3.825-2.349a22.16 22.16 0 0 0-3.127-.338Zm74.139 10.572c-11.556 11.703-43.362 18.806-72.806 11.587 29.58 12.396 72.664 2.772 72.806-11.587ZM96.45 70.66c2.462-9.587 28.918-16.685 23.143-28.2 12.49 15.42-19.499 25.32-14.869 34.917 2.741 5.675 4.715 8.692 7.445 12.336 0 0-17.972-10.243-15.72-19.053Z" fill="#C33356"/><path d="M117.286 71.583c1.018-12.16 20.97-13.371 20.97-13.371s-13.557 7.746-14.192 11.915c-.667 4.363 5.297 8.337 3.076 13.782-1.266 3.104-5.291 5.803-5.291 5.803s1.004-1.943.841-5.885c-.163-3.943-5.856-6.831-5.404-12.244Z" fill="#C33356"/><defs><linearGradient id="a" x1="86.85" y1="200.028" x2="261.078" y2="374.256" gradientUnits="userSpaceOnUse"><stop stop-color="#8FC2CD"/><stop offset=".568" stop-color="#8FC2CD" stop-opacity="0"/></linearGradient></defs></svg>