<svg width="173" height="198" fill="none" xmlns="http://www.w3.org/2000/svg"><rect x="87.297" y="197.317" width="173.228" height="173.228" rx="31.5" transform="rotate(-120 87.297 197.317)" stroke="url(#a)"/><path d="M151.773 123.911c-12.308 16.398-38.599 10.863-55.455 11.659 0 0-2.984.166-5.99.661 0 0 1.136-.485 2.586-.985 11.839-4.094 17.434-4.916 24.627-8.611 13.516-6.924 26.968-22.005 29.705-37.672-5.145 15.068-20.791 28.036-35.038 33.302-9.752 3.599-27.387 7.101-27.39 7.102a21.35 21.35 0 0 1-.712-.377c-11.993-5.835-12.34-31.81 9.443-40.183 9.55-3.674 18.684-1.656 29.008-4.114 11.011-2.617 23.764-10.871 28.948-21.661 5.811 17.236 12.791 44.202.268 60.879Zm.214-66.22c-1.465 3.48-3.254 6.617-5.315 9.423C137.599 57.802 124.934 52 110.936 52 83.399 52 61 74.402 61 101.933c0 14.433 6.16 27.449 15.982 36.573l1.094.969a4.272 4.272 0 0 1-.627-5.999 4.271 4.271 0 0 1 6-.631 4.27 4.27 0 0 1 .628 6.004c-1.478 1.832-4.167 2.108-5.996.63l.744.659c8.688 7.315 19.887 11.734 32.111 11.734 26.32 0 47.932-20.483 49.782-46.335 1.37-12.658-2.368-28.732-8.731-47.847Z" fill="#5FB832"/><defs><linearGradient id="a" x1="86.851" y1="198.263" x2="261.079" y2="372.491" gradientUnits="userSpaceOnUse"><stop stop-color="#8FC2CD"/><stop offset=".568" stop-color="#8FC2CD" stop-opacity="0"/></linearGradient></defs></svg>