<svg width="173" height="198" fill="none" xmlns="http://www.w3.org/2000/svg"><rect x="87.297" y="197.317" width="173.228" height="173.228" rx="31.5" transform="rotate(-120 87.297 197.317)" stroke="url(#a)"/><g filter="url(#c)" clip-path="url(#b)"><path d="M79.584 152.096v-23.103c0-2.541.904-4.711 2.714-6.509 1.805-1.798 3.977-2.697 6.514-2.697h61.543c2.537 0 4.708.905 6.514 2.714 1.806 1.81 2.711 3.979 2.714 6.509v23.086h-80Zm24.508-42.418c-6.78 0-12.562-2.39-17.343-7.171-4.777-4.777-7.165-10.552-7.165-17.326 0-6.773 2.388-12.554 7.165-17.343 4.777-4.788 10.56-7.179 17.349-7.171h30.988c6.781 0 12.56 2.389 17.337 7.166 4.778 4.777 7.164 10.56 7.16 17.348-.003 6.789-2.392 12.568-7.165 17.337-4.774 4.77-10.553 7.159-17.337 7.166l-30.989-.006Zm-.006-20.331c1.181 0 2.172-.4 2.972-1.2.8-.8 1.202-1.79 1.205-2.971.004-1.181-.396-2.172-1.2-2.972-.803-.8-1.794-1.202-2.971-1.206-1.177-.003-2.168.397-2.971 1.2-.804.804-1.206 1.795-1.206 2.972s.4 2.168 1.2 2.971c.8.804 1.79 1.206 2.971 1.206Zm30.989 0c1.181 0 2.171-.4 2.971-1.2.8-.8 1.202-1.79 1.206-2.971.004-1.181-.396-2.172-1.2-2.972-.804-.8-1.794-1.202-2.971-1.206-1.178-.003-2.168.397-2.972 1.2-.804.804-1.206 1.795-1.206 2.972s.4 2.168 1.2 2.971c.8.804 1.791 1.206 2.972 1.206Z" fill="#fff"/></g><defs><linearGradient id="a" x1="86.851" y1="198.263" x2="261.079" y2="372.491" gradientUnits="userSpaceOnUse"><stop stop-color="#8FC2CD"/><stop offset=".568" stop-color="#8FC2CD" stop-opacity="0"/></linearGradient><clipPath id="b"><path fill="#fff" transform="translate(55 41)" d="M0 0h118v118H0z"/></clipPath><filter id="c" x="75.584" y="60.667" width="88" height="99.429" filterUnits="userSpaceOnUse" color-interpolation-filters="sRGB"><feFlood flood-opacity="0" result="BackgroundImageFix"/><feColorMatrix in="SourceAlpha" values="0 0 0 0 0 0 0 0 0 0 0 0 0 0 0 0 0 0 127 0" result="hardAlpha"/><feOffset dy="4"/><feGaussianBlur stdDeviation="2"/><feComposite in2="hardAlpha" operator="out"/><feColorMatrix values="0 0 0 0 0 0 0 0 0 0 0 0 0 0 0 0 0 0 0.25 0"/><feBlend in2="BackgroundImageFix" result="effect1_dropShadow_2853_8533"/><feBlend in="SourceGraphic" in2="effect1_dropShadow_2853_8533" result="shape"/></filter></defs></svg>