<svg width="47" height="40" viewBox="0 0 45 45" fill="none" xmlns="http://www.w3.org/2000/svg"><path d="M29.457 4.546c-.495.545-.495 1.422-.495 3.178v24.204c0 1.756 0 2.633.495 3.178.496.546 1.293.546 2.89.546 1.595 0 2.392 0 2.888-.546.496-.545.496-1.422.496-3.178V7.724c0-1.756 0-2.633-.496-3.178C34.739 4 33.942 4 32.346 4c-1.596 0-2.393 0-2.889.546Zm-12.342 8.763c0-1.755 0-2.632.496-3.178.496-.545 1.293-.545 2.889-.545 1.596 0 2.393 0 2.889.545.496.546.496 1.423.496 3.178v18.62c0 1.755 0 2.632-.496 3.177-.496.546-1.293.546-2.889.546-1.596 0-2.393 0-2.889-.546-.496-.545-.496-1.422-.496-3.178V13.31Zm-11.35 4.27c-.496.545-.496 1.422-.496 3.178v11.171c0 1.756 0 2.633.496 3.178.496.546 1.293.546 2.889.546 1.596 0 2.393 0 2.889-.546.496-.545.496-1.422.496-3.178V20.757c0-1.756 0-2.633-.496-3.178-.496-.546-1.293-.546-2.89-.546-1.595 0-2.392 0-2.888.546ZM5.27 39.84c-.336 0-.66.147-.897.41a1.47 1.47 0 0 0-.372.987c0 .37.134.725.372.987s.56.41.897.41h30.462c.336 0 .66-.148.897-.41a1.47 1.47 0 0 0 .372-.987c0-.37-.134-.726-.372-.988a1.214 1.214 0 0 0-.897-.409H5.269Z" fill="#202940"/></svg>