<svg width="70" height="71" fill="none" xmlns="http://www.w3.org/2000/svg"><rect y=".26" width="70" height="70" rx="35" fill="#8AD0E4"/><path d="M50.122 18.038c-1.548 0-3.041.601-4.236 1.649-2.57-.971-5.386-1.632-8.438-1.632-9.727 0-17.98 5.518-19.723 13.299-.858-.326-1.732-.538-2.604-.538-2.795 0-5.121 2.275-5.121 5.07 0 2.794 2.326 5.069 5.121 5.069a1.668 1.668 0 1 0 0-3.334c-1.02 0-1.788-.77-1.788-1.736s.767-1.736 1.788-1.736c.3 0 .992.124 1.546.347.553.223.961.605.92.539a1.666 1.666 0 0 0 3.073-.764l.104-1.39v-.051c.922-6.268 7.843-11.441 16.684-11.441 2.997 0 5.796.657 8.246 1.719a1.665 1.665 0 0 0 1.98-.504c.121-.156.19-.249.208-.277a3.21 3.21 0 0 1 2.24-.955h.017c.138 0 .267.008.347.017L49.2 22.813a1.668 1.668 0 0 0 .226 2.43c2.005 1.555 3.436 3.465 4.202 5.556a1.666 1.666 0 0 0 1.58 1.093h1.458v4.636h-1.459a1.665 1.665 0 0 0-1.58 1.094c-.824 2.251-2.472 4.276-4.757 5.903a1.666 1.666 0 0 0-.59 1.961l1.39 3.663h-3.247l-.782-2.048a1.667 1.667 0 0 0-2.03-1.007c-1.914.58-3.972.903-6.164.903-2.167 0-4.23-.33-6.129-.903a1.667 1.667 0 0 0-2.031 1.007l-.78 2.048H25.26l1.388-3.663a1.667 1.667 0 0 0-.59-1.961c-1.906-1.36-3.371-3.02-4.288-4.844a1.669 1.669 0 0 0-2.986 1.493c1.003 1.995 2.555 3.707 4.357 5.19l-1.857 4.845a1.666 1.666 0 0 0 1.545 2.274h6.823a1.667 1.667 0 0 0 1.562-1.077l.677-1.77c1.773.413 3.613.694 5.556.694 1.96 0 3.822-.277 5.608-.694l.677 1.77a1.666 1.666 0 0 0 1.545 1.077H52.1a1.667 1.667 0 0 0 1.562-2.274l-1.84-4.792c1.9-1.556 3.443-3.423 4.445-5.556h2.065A1.667 1.667 0 0 0 60 38.195v-7.97a1.667 1.667 0 0 0-1.667-1.666h-2.065a15.732 15.732 0 0 0-3.456-4.757l1.598-1.788a1.667 1.667 0 0 0-.139-2.379c-.928-.805-2.067-1.4-3.35-1.562h-.018a5.94 5.94 0 0 0-.781-.035Zm-12.778 6.684a1.667 1.667 0 0 0-1.632 1.7v.33c-2.018.653-3.577 2.35-3.577 4.532 0 1.157.52 2.346 1.424 3.16.903.813 2.112 1.3 3.559 1.528.993.156 1.566.465 1.84.712.274.247.33.38.33.66 0 .677-.764 1.492-2.066 1.492-.96 0-1.693-.497-1.945-.972A1.665 1.665 0 0 0 33 37.105a1.666 1.666 0 0 0-.674 2.304c.686 1.3 1.93 2.217 3.386 2.587v.226a1.665 1.665 0 0 0 1.666 1.69 1.666 1.666 0 0 0 1.667-1.69v-.33c2.018-.652 3.576-2.366 3.576-4.549 0-1.156-.52-2.329-1.423-3.142-.903-.814-2.112-1.3-3.56-1.528-.993-.156-1.583-.465-1.857-.712-.273-.246-.312-.398-.312-.677 0-.678.764-1.493 2.066-1.493.96 0 1.694.516 1.944.99a1.67 1.67 0 0 0 2.952-1.563c-.686-1.3-1.93-2.199-3.386-2.57v-.225a1.667 1.667 0 0 0-1.701-1.701Zm12.308 3.35a1.39 1.39 0 1 0 0 2.779 1.39 1.39 0 0 0 0-2.779Z" fill="#0083BB"/></svg>