<svg width="56" height="56" fill="none" xmlns="http://www.w3.org/2000/svg"><rect width="56" height="56" rx="28" fill="#FF8D4D" fill-opacity=".71"/><path d="M22.203 38.86c-1.74 0-3.29-.43-4.65-1.29-1.36-.86-2.43-2.1-3.21-3.72-.76-1.64-1.14-3.59-1.14-5.85s.38-4.2 1.14-5.82c.78-1.64 1.85-2.89 3.21-3.75 1.36-.86 2.91-1.29 4.65-1.29 1.74 0 3.29.43 4.65 1.29 1.36.86 2.42 2.11 3.18 3.75.78 1.62 1.17 3.56 1.17 5.82 0 2.26-.39 4.21-1.17 5.85-.76 1.62-1.82 2.86-3.18 3.72-1.36.86-2.91 1.29-4.65 1.29Zm0-4.11c1.28 0 2.28-.55 3-1.65.74-1.1 1.11-2.8 1.11-5.1s-.37-4-1.11-5.1c-.72-1.1-1.72-1.65-3-1.65-1.26 0-2.26.55-3 1.65-.72 1.1-1.08 2.8-1.08 5.1s.36 4 1.08 5.1c.74 1.1 1.74 1.65 3 1.65ZM41.49 17.5v21h-4.86V21.4h-4.2v-3.9h9.06Z" fill="#000"/></svg>