<svg width="50" height="51" fill="none" xmlns="http://www.w3.org/2000/svg"><rect y=".427" width="50" height="50" rx="25" fill="url(#a)"/><path fill-rule="evenodd" clip-rule="evenodd" d="m36.739 31.471.11.115c.4.44.631 1.01.65 1.605l.001.16c0 .187 0 .28-.005.358a2.5 2.5 0 0 1-2.337 2.337c-.12.005-.24.007-.36.005H15.202c-.187 0-.28 0-.359-.005a2.5 2.5 0 0 1-2.337-2.337c-.005-.079-.005-.173-.005-.358l.001-.158a2.5 2.5 0 0 1 .76-1.72L14.88 29.8H35.12l1.618 1.67Zm-15.801 2.08a.938.938 0 0 1 .937-.937h6.25a.938.938 0 0 1 0 1.875h-6.25a.938.938 0 0 1-.938-.938Zm-5.497-13.75c0-2.357 0-3.535.733-4.267.732-.733 1.91-.733 4.267-.733h9.118c2.357 0 3.536 0 4.267.733.733.732.733 1.91.733 4.267v8.75H15.44v-8.75ZM25 19.176a.938.938 0 1 0 0-1.875.938.938 0 0 0 0 1.875Z" fill="#fff"/><defs><linearGradient id="a" x1="7.986" y1=".246" x2="44.097" y2="50.246" gradientUnits="userSpaceOnUse"><stop stop-color="#034AFF"/><stop offset="1" stop-color="#034AFF" stop-opacity=".5"/></linearGradient></defs></svg>