<svg width="50" height="51" fill="none" xmlns="http://www.w3.org/2000/svg"><rect y=".427" width="50" height="50" rx="25" fill="url(#a)"/><path d="M12.5 25.424a12.5 12.5 0 1 1 6.475 10.955l-4.86 1.48a1.25 1.25 0 0 1-1.56-1.56l1.48-4.868a12.5 12.5 0 0 1-1.535-6.007Zm7.5-1.25a1.25 1.25 0 0 0 1.25 1.25h7.5a1.25 1.25 0 0 0 0-2.5h-7.5a1.25 1.25 0 0 0-1.25 1.25Zm1.25 3.75a1.25 1.25 0 0 0 0 2.5h5a1.25 1.25 0 0 0 0-2.5h-5Z" fill="#fff"/><defs><linearGradient id="a" x1="7.986" y1=".246" x2="44.097" y2="50.246" gradientUnits="userSpaceOnUse"><stop stop-color="#034AFF"/><stop offset="1" stop-color="#034AFF" stop-opacity=".5"/></linearGradient></defs></svg>