<svg width="50" height="51" fill="none" xmlns="http://www.w3.org/2000/svg"><rect y=".427" width="50" height="50" rx="25" fill="url(#a)"/><path d="m32.659 20.861-4.125-3.711c-1.174-1.058-1.76-1.587-2.483-1.863l-.009 2.848c0 2.455 0 3.683.762 4.446.763.762 1.991.762 4.446.762h3.73c-.378-.733-1.055-1.341-2.321-2.482Z" fill="#fff"/><path fill-rule="evenodd" clip-rule="evenodd" d="M22.916 35.843h4.167c3.928 0 5.893 0 7.113-1.22 1.22-1.22 1.22-3.185 1.22-7.113v-.455c0-.91 0-1.593-.044-2.15H31.15c-1.143 0-2.153 0-2.967-.108-.882-.12-1.765-.391-2.484-1.11-.721-.722-.993-1.604-1.112-2.486-.11-.814-.11-1.823-.11-2.967l.011-2.952c0-.087.008-.17.021-.254-.426-.018-.931-.018-1.562-.018-3.95 0-5.924 0-7.144 1.22-1.221 1.22-1.221 3.185-1.221 7.113v4.167c0 3.928 0 5.893 1.22 7.113 1.22 1.22 3.185 1.22 7.113 1.22Zm1.01-6.802a.78.78 0 0 1 1.105 0l1.042 1.042a.781.781 0 0 1 0 1.104L25.03 32.23a.78.78 0 0 1-1.353-.546.782.782 0 0 1 .249-.558l.49-.49-.49-.49a.781.781 0 0 1 0-1.104Zm-.278-1.257a.78.78 0 0 0-1.058-1.002.78.78 0 0 0-.405.454l-1.562 4.167a.78.78 0 1 0 1.462.548l1.563-4.167Zm-3.305-.826a.781.781 0 0 1 0 1.104l-.49.49.49.49a.782.782 0 1 1-1.104 1.103l-1.041-1.041a.781.781 0 0 1 0-1.104l1.041-1.042a.781.781 0 0 1 1.104 0Z" fill="#fff"/><defs><linearGradient id="a" x1="7.986" y1=".246" x2="44.097" y2="50.246" gradientUnits="userSpaceOnUse"><stop stop-color="#034AFF"/><stop offset="1" stop-color="#034AFF" stop-opacity=".5"/></linearGradient></defs></svg>