<svg width="56" height="56" fill="none" xmlns="http://www.w3.org/2000/svg"><rect width="56" height="56" rx="28" fill="#314FB9" fill-opacity=".72"/><path d="M19.259 38.86c-1.74 0-3.29-.43-4.65-1.29-1.36-.86-2.43-2.1-3.21-3.72-.76-1.64-1.14-3.59-1.14-5.85s.38-4.2 1.14-5.82c.78-1.64 1.85-2.89 3.21-3.75 1.36-.86 2.91-1.29 4.65-1.29 1.74 0 3.29.43 4.65 1.29 1.36.86 2.42 2.11 3.18 3.75.78 1.62 1.17 3.56 1.17 5.82 0 2.26-.39 4.21-1.17 5.85-.76 1.62-1.82 2.86-3.18 3.72-1.36.86-2.91 1.29-4.65 1.29Zm0-4.11c1.28 0 2.28-.55 3-1.65.74-1.1 1.11-2.8 1.11-5.1s-.37-4-1.11-5.1c-.72-1.1-1.72-1.65-3-1.65-1.26 0-2.26.55-3 1.65-.72 1.1-1.08 2.8-1.08 5.1s.36 4 1.08 5.1c.74 1.1 1.74 1.65 3 1.65Zm20.878-8.7c1.84.3 3.25.99 4.23 2.07.98 1.06 1.47 2.38 1.47 3.96 0 1.22-.32 2.35-.96 3.39-.64 1.02-1.62 1.84-2.94 2.46-1.3.62-2.9.93-4.8.93-1.48 0-2.94-.19-4.38-.57-1.42-.4-2.63-.96-3.63-1.68l1.89-3.72c.8.6 1.72 1.07 2.76 1.41 1.06.32 2.14.48 3.24.48 1.22 0 2.18-.23 2.88-.69.7-.48 1.05-1.15 1.05-2.01 0-1.72-1.31-2.58-3.93-2.58h-2.22v-3.21l4.32-4.89h-8.94v-3.9h14.7v3.15l-4.74 5.4Z" fill="#000"/></svg>