<svg width="56" height="17" viewBox="0 0 56 17" fill="none" xmlns="http://www.w3.org/2000/svg">
<path d="M50.1436 0.375H39.5083C40.1278 3.91203 43.5353 7.24101 47.2525 7.24101H55.7195C55.8228 6.92892 55.8227 6.40876 55.8227 6.09667C55.8227 2.97576 53.2413 0.375 50.1436 0.375Z" fill="#CED6EA"/>
<path d="M40.437 7.86475V16.4993H45.5998V11.9219H50.1431C52.6212 11.9219 54.7896 10.1534 55.5124 7.86475H40.437Z" fill="#818899"/>
<path d="M22.2646 0.375V16.3957H26.8079C26.8079 16.3957 27.9437 16.3957 28.5633 15.2513C31.6609 9.11355 32.5902 7.24101 32.5902 7.24101H33.2098V16.3957H38.3726V0.375H33.8293C33.8293 0.375 32.6935 0.479037 32.074 1.51934C29.4926 6.82489 28.047 9.52968 28.047 9.52968H27.4274V0.375H22.2646Z" fill="#818899"/>
<path d="M0.580566 16.4997V0.479004H5.74336C5.74336 0.479004 7.18896 0.479001 8.01501 2.76767C10.0801 8.80143 10.2867 9.63368 10.2867 9.63368C10.2867 9.63368 10.6997 8.17725 12.5583 2.76767C13.3843 0.479001 14.8299 0.479004 14.8299 0.479004H19.9927V16.4997H14.8299V7.86517H14.2104L11.3192 16.4997H9.04757L6.15641 7.86517H5.53687V16.4997H0.580566Z" fill="#818899"/>
</svg>
