<svg width="37" height="37" viewBox="0 0 37 37" fill="none" xmlns="http://www.w3.org/2000/svg">
<g clip-path="url(#clip0_1062_1975)">
<path d="M17.285 2.53512L6.785 7.20012C5.705 7.68012 5 8.76012 5 9.94512V16.9951C5 25.3201 10.76 33.1051 18.5 34.9951C26.24 33.1051 32 25.3201 32 16.9951V9.94512C32 8.76012 31.295 7.68012 30.215 7.20012L19.715 2.53512C18.95 2.19012 18.05 2.19012 17.285 2.53512ZM14.435 24.9301L10.55 21.0451C9.965 20.4601 9.965 19.5151 10.55 18.9301C11.135 18.3451 12.08 18.3451 12.665 18.9301L15.5 21.7501L24.32 12.9301C24.905 12.3451 25.85 12.3451 26.435 12.9301C27.02 13.5151 27.02 14.4601 26.435 15.0451L16.55 24.9301C15.98 25.5151 15.02 25.5151 14.435 24.9301Z" fill="#798298"/>
</g>
<defs>
<clipPath id="clip0_1062_1975">
<rect width="36" height="36" fill="white" transform="translate(0.5 0.495117)"/>
</clipPath>
</defs>
</svg>
