<svg width="53" height="18" viewBox="0 0 53 18" fill="none" xmlns="http://www.w3.org/2000/svg">
<path fill-rule="evenodd" clip-rule="evenodd" d="M13.4843 17.4015H9.01754L5.66801 4.14837C5.50903 3.53873 5.17147 2.99977 4.67492 2.74575C3.43572 2.10739 2.07021 1.59936 0.580566 1.34313V0.832882H7.77617C8.76927 0.832882 9.51409 1.59936 9.63823 2.48952L11.3761 12.0494L15.8407 0.832882H20.1834L13.4843 17.4015ZM22.6653 17.4015H18.4469L21.9205 0.832882H26.139L22.6653 17.4015ZM31.5986 5.42038C31.7227 4.528 32.4675 4.01775 33.3365 4.01775C34.702 3.88964 36.1895 4.14587 37.4308 4.78202L38.1757 1.21471C36.9343 0.704469 35.5688 0.448242 34.3296 0.448242C30.2352 0.448242 27.2559 2.74324 27.2559 5.92841C27.2559 8.35153 29.3663 9.62383 30.8559 10.3903C32.4675 11.1546 33.0882 11.6648 32.9641 12.4291C32.9641 13.5755 31.7227 14.0857 30.4835 14.0857C28.9939 14.0857 27.5042 13.7036 26.1409 13.0652L25.3961 16.6347C26.8857 17.2709 28.4973 17.5271 29.987 17.5271C34.5779 17.653 37.4308 15.3602 37.4308 11.9188C37.4308 7.58505 31.5986 7.33104 31.5986 5.42038ZM52.1918 17.4015L48.8423 0.832882H45.2445C44.4997 0.832882 43.7548 1.34313 43.5066 2.10739L37.3041 17.4015H41.6467L42.5135 14.9806H47.8492L48.3457 17.4015H52.1918ZM45.8657 5.29298L47.1049 11.5374H43.6313L45.8657 5.29298Z" fill="#798298"/>
</svg>
