<svg width="70" height="70" fill="none" xmlns="http://www.w3.org/2000/svg"><rect width="70" height="70" rx="35" fill="#003CD2"/><path fill-rule="evenodd" clip-rule="evenodd" d="M34.13 46.826h2.426s.727-.121 1.091-.485.364-1.091.364-1.091 0-3.153 1.455-3.638c1.455-.485 3.395 3.153 5.336 4.487 1.455 1.091 2.546.849 2.546.849l5.336-.122s2.789-.121 1.455-2.425c-.122-.121-.728-1.576-4.002-4.608-3.395-3.153-2.91-2.546 1.091-8.003 2.426-3.274 3.396-5.214 3.153-6.184-.242-.85-2.061-.607-2.061-.607h-6.063s-.485-.12-.728.122c-.364.242-.485.606-.485.606s-.97 2.546-2.182 4.73c-2.668 4.486-3.76 4.728-4.123 4.486-.97-.607-.728-2.668-.728-4.002 0-4.365.728-6.184-1.334-6.67-.606-.12-1.091-.242-2.789-.242-2.182 0-4.001 0-4.971.485-.728.364-1.213 1.092-.85 1.092.364 0 1.335.242 1.82.848.485 1.092.485 2.91.485 2.91s.363 5.215-.85 5.821c-.848.485-1.94-.485-4.364-4.608-1.213-2.061-2.183-4.486-2.183-4.486s-.122-.485-.485-.728c-.364-.242-.97-.364-.97-.364h-5.7s-.848 0-1.212.364c-.243.364 0 .97 0 .97s4.486 10.429 9.58 15.764c4.729 5.093 9.943 4.73 9.943 4.73Z" fill="#fff"/></svg>