<svg width="44" height="44" fill="none" xmlns="http://www.w3.org/2000/svg"><defs><clipPath id="b"><path transform="translate(.01)" fill="#fff" fill-opacity="0" d="M0 0h44v44H0z"/></clipPath><clipPath id="a"><path transform="matrix(1 0 0 -1 0 44)" fill="#fff" fill-opacity="0" d="M0 0h44v44H0z"/></clipPath></defs><g clip-path="url(#a)"><g clip-path="url(#b)"><path d="M22.01 3.66c-10.12 0-18.34 8.21-18.34 18.33 0 10.12 8.22 18.34 18.34 18.34s18.33-8.22 18.33-18.34S32.13 3.66 22.01 3.66Zm0 5.5c3.04 0 5.5 2.46 5.5 5.5s-2.46 5.5-5.5 5.5a5.49 5.49 0 0 1-5.5-5.5c0-3.04 2.45-5.5 5.5-5.5Zm0 26.04c-4.59 0-8.64-2.35-11-5.91.05-3.65 7.33-5.65 11-5.65 3.64 0 10.94 2 11 5.65-2.37 3.56-6.42 5.91-11 5.91Z" fill="#337EFF" fill-rule="evenodd"/></g></g></svg>