<svg width="71" height="71" fill="none" xmlns="http://www.w3.org/2000/svg"><rect x=".5" y=".26" width="70" height="70" rx="35" fill="#F77F91"/><path fill-rule="evenodd" clip-rule="evenodd" d="M18.835 46.927a5 5 0 1 1 5 5h-5v-5Z" fill="#fff"/><path fill-rule="evenodd" clip-rule="evenodd" d="M30.647 30.26h-4.116l-2.5 5h2.366l4.25-5Zm-4.17 8.334h-7.84l5.834-11.667h9.055c4.62-4.888 9.908-8.333 16.975-8.333h1.667v1.666c0 7.068-3.446 12.354-8.334 16.976v9.054l-11.666 5.834v-7.84l-5.69-5.69Zm9.024 5.77v2.366l5-2.5v-4.116l-5 4.25Z" fill="#fff"/></svg>