<svg width="50" height="51" fill="none" xmlns="http://www.w3.org/2000/svg"><rect y=".427" width="50" height="50" rx="25" fill="url(#a)"/><path d="m21.234 18.979-4.684-1.244.852-3.135a.971.971 0 0 1 1.188-.676l2.807.753a.963.963 0 0 1 .683 1.179l-.846 3.123Zm-8.691 14.144a.954.954 0 0 1-.01-.53l3.498-12.934 4.682 1.245-3.498 12.933a.96.96 0 0 1-.275.455l-2.801 2.59a.292.292 0 0 1-.475-.126l-1.121-3.633ZM29.806 21.58c-4.326 0-5.768-1.442-5.768-5.768 4.326 0 5.768 1.442 5.768 5.768Zm-2.692 15.352c-2.634.404-6.01-3.28-6.768-7.306l1.709-6.315a4.126 4.126 0 0 1 2.729-1.025 5.21 5.21 0 0 1 3.007.94 1.854 1.854 0 0 0 2.094-.019 4.689 4.689 0 0 1 2.807-.92c1.48 0 3.16.94 3.942 2.309 2.954 5.183-2.296 12.9-6.045 12.338a1.666 1.666 0 0 1-.49-.178 2.744 2.744 0 0 0-2.504 0c-.15.083-.313.143-.48.176Z" fill="#fff"/><defs><linearGradient id="a" x1="7.986" y1=".246" x2="44.097" y2="50.246" gradientUnits="userSpaceOnUse"><stop stop-color="#034AFF"/><stop offset="1" stop-color="#034AFF" stop-opacity=".5"/></linearGradient></defs></svg>