<svg width="70" height="71" fill="none" xmlns="http://www.w3.org/2000/svg"><rect y=".76" width="70" height="70" rx="35" fill="#1F27D9"/><path fill-rule="evenodd" clip-rule="evenodd" d="m48.334 26.001.086-5.58-5.306.837-.484.078-.219-.437-2.516-4.978-4.305 3.204-.399.297-.399-.29-4.54-3.242-2.328 4.836-.21.446-.485-.07-5.525-.759.188 5.368.015.492-.468.172-5.244 1.892 2.665 4.664.242.43-.336.368L15 37.847l4.524 2.89.415.267-.125.476-1.423 5.392 5.345.46.492.04.11.484 1.25 5.431 4.946-2.078.454-.188.32.375 3.634 4.235 3.414-4.141.313-.383.46.18 5.181 2.062 1.102-5.25.102-.485.492-.055 5.548-.586-1.469-5.165-.133-.469.407-.273L55 37.972l-3.696-3.892-.336-.36 2.907-5.329-5.087-1.727-.469-.156.008-.492.007-.015Zm-13.323-4.009c3.805 0 7.251 1.54 9.744 4.032a13.736 13.736 0 0 1 4.032 9.744c0 3.806-1.54 7.252-4.032 9.744a13.736 13.736 0 0 1-9.744 4.032c-3.806 0-7.252-1.54-9.744-4.032a13.736 13.736 0 0 1-4.032-9.744c0-3.805 1.54-7.251 4.032-9.744a13.735 13.735 0 0 1 9.744-4.032Z" fill="#fff"/><path fill-rule="evenodd" clip-rule="evenodd" d="M43.786 26.97a12.377 12.377 0 0 0-8.783-3.64c-3.43 0-6.533 1.39-8.783 3.64a12.377 12.377 0 0 0-3.642 8.784c0 3.43 1.39 6.532 3.642 8.783a12.377 12.377 0 0 0 8.783 3.641c3.43 0 6.532-1.39 8.783-3.641a12.377 12.377 0 0 0 3.641-8.783c0-3.431-1.39-6.533-3.641-8.783Zm-16.324 8.737a.68.68 0 0 1 .962 0l3.445 3.446 9.12-9.119a.679.679 0 1 1 .96.962l-9.595 9.595a.679.679 0 0 1-.961 0l-3.923-3.923a.68.68 0 0 1 0-.96h-.008Z" fill="#fff"/></svg>