<svg width="21" height="20" viewBox="0 0 21 20" fill="none" xmlns="http://www.w3.org/2000/svg">
<path fill-rule="evenodd" clip-rule="evenodd" d="M16.434 0.567414C16.4177 0.237954 16.1417 -0.0157449 15.8174 0.000761932C15.4934 0.0172553 15.2438 0.297274 15.2596 0.626388V0.626406L15.2596 0.626705L15.2596 0.626924V0.627191L15.2597 0.628477L15.2599 0.634334L15.2602 0.641193C15.2606 0.65335 15.2611 0.672688 15.2615 0.698416C15.2623 0.749938 15.2625 0.826695 15.2599 0.922409C15.2547 1.11489 15.2383 1.37863 15.1944 1.66511C15.1015 2.27234 14.9059 2.838 14.5744 3.13728C14.2831 3.4003 13.8273 3.49505 13.1219 3.62186L13.0818 3.62905C12.4679 3.73921 11.6515 3.88568 11.0471 4.4314C10.4493 4.97109 10.2017 5.84417 10.088 6.46009C10.0277 6.78699 9.99781 7.08444 9.98289 7.29978C9.97541 7.40793 9.97161 7.49663 9.96969 7.55944C9.96871 7.5909 9.96822 7.61595 9.96794 7.63383L9.96782 7.64346L9.96771 7.65517L9.96767 7.66164V7.66379V7.66461V7.66492C9.96767 7.66508 9.96767 7.66522 10.5556 7.66522H9.96767C9.96767 7.69913 9.97045 7.7324 9.9758 7.76475H3.1089C1.81016 7.76475 0.757324 8.83442 0.757324 10.1539V17.3214C0.757324 18.6409 1.81016 19.7105 3.1089 19.7105H18.0022C19.301 19.7105 20.3538 18.6409 20.3538 17.3214V10.1539C20.3538 8.83442 19.301 7.76475 18.0022 7.76475H11.1353C11.1406 7.7326 11.1434 7.69959 11.1435 7.6659V7.66566V7.66546V7.66522L11.1435 7.66379L11.1436 7.65151C11.1438 7.63982 11.1441 7.62132 11.1449 7.59677C11.1464 7.54762 11.1495 7.47453 11.1558 7.38358C11.1684 7.20073 11.1937 6.95067 11.2436 6.68027C11.3505 6.10162 11.5438 5.58104 11.8281 5.32433C12.1539 5.03019 12.6376 4.92206 13.3267 4.79818L13.3648 4.79137L13.4177 4.78193C14.0108 4.67647 14.794 4.53718 15.3555 4.0302C16.0092 3.43992 16.2546 2.51236 16.3563 1.84876C16.4097 1.49982 16.429 1.18375 16.4352 0.955265C16.4383 0.840499 16.4382 0.746487 16.4372 0.679862C16.4366 0.646517 16.4359 0.619938 16.4353 0.600944C16.435 0.591443 16.4347 0.583832 16.4344 0.578211L16.4341 0.571285L16.434 0.568963L16.434 0.568091L16.434 0.567729C16.434 0.567568 16.434 0.567414 15.8468 0.597303L16.434 0.567414ZM2.71697 10.353H4.28469V12.1449H2.71697V10.353ZM6.63627 10.353H5.06855V12.1449H6.63627V10.353ZM7.42013 10.353H8.98784V12.1449H7.42013V10.353ZM11.3394 12.1449V10.353H9.7717V12.1449H11.3394ZM12.1233 10.353H13.691V12.1449H12.1233V10.353ZM16.0426 10.353H14.4749V12.1449H16.0426V10.353ZM16.8264 10.353H18.3942V12.1449H16.8264V10.353ZM4.28469 15.5295H2.71697V17.3214H4.28469V15.5295ZM16.0426 15.5295V17.3214H5.06855V15.5295H16.0426ZM18.3942 15.5295H16.8264V17.3214H18.3942V15.5295ZM3.89276 12.9413H5.46048V14.7331H3.89276V12.9413ZM7.81206 12.9413H6.24434V14.7331H7.81206V12.9413ZM8.59592 12.9413H10.1636V14.7331H8.59592V12.9413ZM12.5152 12.9413H10.9475V14.7331H12.5152V12.9413ZM13.2991 12.9413H14.8668V14.7331H13.2991V12.9413ZM17.2184 12.9413H15.6506V14.7331H17.2184V12.9413Z" fill="#FD9207"/>
</svg>
